<svg xmlns="http://www.w3.org/2000/svg" viewBox="0 0 435.5 234.5"><defs><style>.cls-1{fill:#f7f4ef;}.cls-2{fill:#e4e4e4;}.cls-3{fill:#ff3a20;}.cls-4{fill:#656565;}</style></defs><g id="Layer_2" data-name="Layer 2"><g id="Layer_1-2" data-name="Layer 1"><rect class="cls-1" x="0.5" width="435" height="234.5"/><rect class="cls-2" y="89.5" width="435" height="145"/><path class="cls-3" d="M23.86,37.22,16.64,10h3.7l4.13,17.83c.45,1.87.83,3.72,1.15,5.57.7-2.91,1.1-4.59,1.23-5L32,10h4.35l3.89,13.77a73.4,73.4,0,0,1,2.12,9.63c.34-1.72.8-3.7,1.35-5.92L48,10h3.62l-7.46,27.2H40.69L35,16.49c-.49-1.73-.77-2.79-.86-3.19-.28,1.25-.55,2.32-.8,3.19L27.53,37.22Z"/><path class="cls-3" d="M18,69.57q0-6.76,3.63-10.6A12.36,12.36,0,0,1,31,55.14a13,13,0,0,1,6.79,1.8,11.66,11.66,0,0,1,4.61,5A16.25,16.25,0,0,1,44,69.26a16.09,16.09,0,0,1-1.67,7.4,11.36,11.36,0,0,1-4.73,4.94A13.51,13.51,0,0,1,31,83.28a12.8,12.8,0,0,1-6.86-1.85,12,12,0,0,1-4.59-5.07A15.46,15.46,0,0,1,18,69.57Zm3.71.06a10.88,10.88,0,0,0,2.64,7.74A8.67,8.67,0,0,0,31,80.2a8.69,8.69,0,0,0,6.69-2.85q2.63-2.86,2.63-8.11a14.05,14.05,0,0,0-1.12-5.8,8.66,8.66,0,0,0-3.29-3.84,8.9,8.9,0,0,0-4.85-1.37,9.22,9.22,0,0,0-6.58,2.63Q21.74,63.49,21.73,69.63Z"/><path class="cls-4" d="M19,128.42v-27.2h5.42l6.44,19.26q.88,2.68,1.29,4c.31-1,.8-2.44,1.45-4.36l6.51-18.92H45v27.2H41.49V105.65l-7.91,22.77H30.34l-7.87-23.16v23.16Z"/><path class="cls-4" d="M16.12,174l10.45-27.2h3.88L41.58,174h-4.1l-3.17-8.24H22.93L20,174ZM24,162.85h9.22l-2.84-7.53q-1.29-3.44-1.92-5.64A35.34,35.34,0,0,1,27,154.87Z"/><path class="cls-4" d="M19.07,219.62v-27.2h3.7l14.28,21.36V192.42H40.5v27.2H36.81L22.52,198.25v21.37Z"/><path class="cls-4" d="M71.26,127.56V128h-1v3.33h1v.47H68.69v-.47h1V128h-1v-.47Z"/><path class="cls-4" d="M72.29,128.66h.48l0,.47.15-.19.18-.14a1.77,1.77,0,0,1,.31-.15,1.34,1.34,0,0,1,.35-.05,1.33,1.33,0,0,1,.45.07.91.91,0,0,1,.35.22,1.09,1.09,0,0,1,.22.38,1.73,1.73,0,0,1,.08.55v2h-.55v-2a1.28,1.28,0,0,0,0-.36.57.57,0,0,0-.14-.24.58.58,0,0,0-.23-.13,1,1,0,0,0-.3,0,.82.82,0,0,0-.28,0,.9.9,0,0,0-.24.12.75.75,0,0,0-.16.15,1.18,1.18,0,0,0-.13.18v2.28h-.54Z"/><path class="cls-4" d="M76.7,129.08h-.88v-.42h.88v-.22a1.45,1.45,0,0,1,.09-.54.9.9,0,0,1,.25-.38,1,1,0,0,1,.39-.24,1.6,1.6,0,0,1,.51-.08h.23l.23,0,.14,0,.15,0-.06.44-.28-.07a1.87,1.87,0,0,0-.34,0,1,1,0,0,0-.33,0,.62.62,0,0,0-.24.13.87.87,0,0,0-.15.25,1.18,1.18,0,0,0-.05.35v.22h1.22v.42H77.24v2.75H76.7Z"/><path class="cls-4" d="M79.44,129.58a1.4,1.4,0,0,1,.28-.51,1.52,1.52,0,0,1,.45-.35,1.59,1.59,0,0,1,1.21,0,1.3,1.3,0,0,1,.45.35,1.42,1.42,0,0,1,.29.51,1.85,1.85,0,0,1,.1.63v.07a1.81,1.81,0,0,1-.1.63,1.42,1.42,0,0,1-.29.51,1.17,1.17,0,0,1-.45.34,1.32,1.32,0,0,1-.6.13,1.41,1.41,0,0,1-1.06-.47,1.4,1.4,0,0,1-.28-.51,1.81,1.81,0,0,1-.1-.63v-.07A1.85,1.85,0,0,1,79.44,129.58Zm.49,1.14a1.33,1.33,0,0,0,.17.38.83.83,0,0,0,.28.25.77.77,0,0,0,.4.1.71.71,0,0,0,.39-.1.75.75,0,0,0,.28-.25,1.1,1.1,0,0,0,.17-.38,1.61,1.61,0,0,0,.06-.44v-.07a1.61,1.61,0,0,0-.06-.44,1.26,1.26,0,0,0-.17-.37.86.86,0,0,0-.28-.26.85.85,0,0,0-.4-.1.81.81,0,0,0-.39.1.86.86,0,0,0-.28.26,1.26,1.26,0,0,0-.17.37,2.12,2.12,0,0,0-.05.44v.07A2.12,2.12,0,0,0,79.93,130.72Z"/><path class="cls-4" d="M85.48,128.62a.59.59,0,0,1,.24.06l-.07.53-.3-.06h-.3a1,1,0,0,0-.36.05.82.82,0,0,0-.28.14.73.73,0,0,0-.19.2,1.26,1.26,0,0,0-.13.26v2h-.55v-3.17h.52l0,.42v.08a1.53,1.53,0,0,1,.47-.41,1.26,1.26,0,0,1,.62-.15Z"/><path class="cls-4" d="M87,129a.72.72,0,0,1,.26-.26.65.65,0,0,1,.38-.1.73.73,0,0,1,.22,0,.49.49,0,0,1,.18.08l.1.1a.57.57,0,0,1,.08.13.64.64,0,0,1,.1-.13.4.4,0,0,1,.12-.1.75.75,0,0,1,.18-.08.78.78,0,0,1,.22,0,.94.94,0,0,1,.3.05.64.64,0,0,1,.22.14.7.7,0,0,1,.15.27,1.25,1.25,0,0,1,.05.4v2.37H89v-2.37a.48.48,0,0,0,0-.18.31.31,0,0,0-.06-.13.35.35,0,0,0-.12-.07l-.16,0a.47.47,0,0,0-.17,0,.26.26,0,0,0-.11.07.39.39,0,0,0-.08.1.58.58,0,0,0,0,.14v2.43h-.52v-2.38a.47.47,0,0,0,0-.17.27.27,0,0,0-.07-.13.3.3,0,0,0-.11-.07l-.15,0-.17,0-.12.06-.07.08a.25.25,0,0,0,0,.09v2.52h-.52v-3.17h.49Z"/><path class="cls-4" d="M92.32,131.67l0-.19a.93.93,0,0,1-.18.16l-.22.13-.26.08a.92.92,0,0,1-.29,0,1.34,1.34,0,0,1-.46-.08.88.88,0,0,1-.34-.2.92.92,0,0,1-.23-.29.9.9,0,0,1-.07-.37,1,1,0,0,1,.1-.46.94.94,0,0,1,.3-.33,1.33,1.33,0,0,1,.45-.19,2.77,2.77,0,0,1,.6-.06h.59v-.25a.55.55,0,0,0,0-.26.48.48,0,0,0-.15-.2.71.71,0,0,0-.23-.12,1.08,1.08,0,0,0-.32,0,.82.82,0,0,0-.28,0,.51.51,0,0,0-.22.11.34.34,0,0,0-.13.16.32.32,0,0,0-.05.19H90.3a.69.69,0,0,1,.09-.34,1,1,0,0,1,.25-.3,1.39,1.39,0,0,1,.4-.22,1.67,1.67,0,0,1,.52-.08,1.59,1.59,0,0,1,.5.07,1.29,1.29,0,0,1,.41.19.88.88,0,0,1,.26.34,1.11,1.11,0,0,1,.1.46v1.48a2,2,0,0,0,0,.33,1.27,1.27,0,0,0,.08.31v.05h-.57A.5.5,0,0,1,92.32,131.67Zm-.61-.3a.93.93,0,0,0,.25-.1,1.08,1.08,0,0,0,.2-.16.94.94,0,0,0,.12-.18v-.64h-.5a2.31,2.31,0,0,0-.49.05.72.72,0,0,0-.33.15.43.43,0,0,0-.14.16.62.62,0,0,0,0,.44.33.33,0,0,0,.12.17.43.43,0,0,0,.2.11.76.76,0,0,0,.27,0A.94.94,0,0,0,91.71,131.37Z"/><path class="cls-4" d="M95.17,128.66h1.21v.42H95.17v1.72a.85.85,0,0,0,0,.3.38.38,0,0,0,.13.19.45.45,0,0,0,.19.11.85.85,0,0,0,.23,0H96l.18,0,.17,0,.12,0,.08.39-.16.07-.21.05-.25,0h-.25a1.23,1.23,0,0,1-.39-.06.76.76,0,0,1-.32-.2.78.78,0,0,1-.21-.33,1.25,1.25,0,0,1-.08-.5v-1.72H93.8v-.42h.83v-.77h.54Z"/><path class="cls-4" d="M99.2,128.66v2.7h1v.47H97.58v-.47h1.07v-2.23H97.58v-.47Zm-.59-1a.24.24,0,0,1,.16-.16.32.32,0,0,1,.14,0,.27.27,0,0,1,.13,0,.21.21,0,0,1,.1.06.36.36,0,0,1,.07.1.32.32,0,0,1,0,.14.3.3,0,0,1-.08.22.33.33,0,0,1-.24.08.37.37,0,0,1-.25-.08.34.34,0,0,1,0-.36Z"/><path class="cls-4" d="M101,129.58a1.28,1.28,0,0,1,.29-.51,1.3,1.3,0,0,1,.45-.35,1.4,1.4,0,0,1,.6-.12,1.46,1.46,0,0,1,.6.12,1.44,1.44,0,0,1,.46.35,1.4,1.4,0,0,1,.28.51,1.85,1.85,0,0,1,.1.63v.07a1.81,1.81,0,0,1-.1.63,1.4,1.4,0,0,1-.28.51,1.28,1.28,0,0,1-.46.34,1.26,1.26,0,0,1-.6.13,1.32,1.32,0,0,1-.6-.13,1.17,1.17,0,0,1-.45-.34,1.28,1.28,0,0,1-.29-.51,1.81,1.81,0,0,1-.1-.63v-.07A1.85,1.85,0,0,1,101,129.58Zm.5,1.14a.94.94,0,0,0,.17.38.68.68,0,0,0,.28.25.81.81,0,0,0,.78,0,.78.78,0,0,0,.29-.25,1.09,1.09,0,0,0,.16-.38,1.61,1.61,0,0,0,.06-.44v-.07a1.61,1.61,0,0,0-.06-.44.9.9,0,0,0-.17-.37.77.77,0,0,0-.28-.26.81.81,0,0,0-.39-.1.88.88,0,0,0-.4.1.75.75,0,0,0-.27.26.9.9,0,0,0-.17.37,1.61,1.61,0,0,0-.06.44v.07A1.61,1.61,0,0,0,101.54,130.72Z"/><path class="cls-4" d="M104.69,128.66h.49l0,.47a.9.9,0,0,1,.15-.19,1.24,1.24,0,0,1,.18-.14,1.4,1.4,0,0,1,.3-.15,1.4,1.4,0,0,1,.81,0,.87.87,0,0,1,.34.22,1.1,1.1,0,0,1,.23.38,1.75,1.75,0,0,1,.07.55v2h-.54v-2a1.25,1.25,0,0,0-.05-.36.55.55,0,0,0-.13-.24.65.65,0,0,0-.23-.13,1,1,0,0,0-.31,0,.86.86,0,0,0-.28,0,1,1,0,0,0-.23.12.8.8,0,0,0-.17.15,1.18,1.18,0,0,0-.13.18v2.28h-.54Z"/><path class="cls-4" d="M110.32,131.67a1.11,1.11,0,0,1,0-.19l-.19.16a1.16,1.16,0,0,1-.22.13l-.26.08a.92.92,0,0,1-.29,0,1.34,1.34,0,0,1-.46-.08,1,1,0,0,1-.34-.2.77.77,0,0,1-.22-.29.91.91,0,0,1-.08-.37,1,1,0,0,1,.1-.46.94.94,0,0,1,.3-.33,1.48,1.48,0,0,1,.46-.19,2.71,2.71,0,0,1,.6-.06h.59v-.25a.67.67,0,0,0-.2-.46.9.9,0,0,0-.24-.12,1,1,0,0,0-.31,0,.85.85,0,0,0-.29,0,.51.51,0,0,0-.22.11.42.42,0,0,0-.13.16.32.32,0,0,0-.05.19h-.55a.86.86,0,0,1,.34-.64,1.39,1.39,0,0,1,.4-.22,1.69,1.69,0,0,1,.53-.08,1.63,1.63,0,0,1,.5.07,1.24,1.24,0,0,1,.4.19.88.88,0,0,1,.26.34,1,1,0,0,1,.1.46v1.48a2,2,0,0,0,0,.33,2,2,0,0,0,.08.31v.05h-.56A.49.49,0,0,1,110.32,131.67Zm-.61-.3a1,1,0,0,0,.26-.1l.19-.16a1,1,0,0,0,.13-.18v-.64h-.51a2.38,2.38,0,0,0-.49.05.72.72,0,0,0-.33.15.4.4,0,0,0-.13.16.54.54,0,0,0,0,.22.54.54,0,0,0,0,.22.52.52,0,0,0,.12.17.43.43,0,0,0,.2.11.78.78,0,0,0,.28,0A.93.93,0,0,0,109.71,131.37Z"/><path class="cls-4" d="M113.6,127.33v4h1v.47H112v-.47h1.08V127.8H112v-.47Z"/><path class="cls-4" d="M118.73,128.66h.48l.36,2,.07.45.08-.45.51-2h.34l.51,2,.08.5.08-.5.35-2h.48l-.67,3.17H121l-.49-1.94-.08-.5-.08.5-.49,1.94h-.43Z"/><path class="cls-4" d="M123.48,131.77a1.31,1.31,0,0,1-.48-.32,1.59,1.59,0,0,1-.31-.48,1.75,1.75,0,0,1-.11-.62v-.12a1.92,1.92,0,0,1,.12-.69A1.87,1.87,0,0,1,123,129a1.59,1.59,0,0,1,.46-.32,1.44,1.44,0,0,1,.53-.11,1.4,1.4,0,0,1,.6.12,1.27,1.27,0,0,1,.43.32,1.47,1.47,0,0,1,.25.5,2,2,0,0,1,.09.62v.24h-2.27v0a2.26,2.26,0,0,0,.09.41,1.27,1.27,0,0,0,.2.31,1,1,0,0,0,.31.22.9.9,0,0,0,.4.08,1.08,1.08,0,0,0,.52-.11A1.15,1.15,0,0,0,125,131l.33.25a1.49,1.49,0,0,1-1.25.62A1.56,1.56,0,0,1,123.48,131.77Zm.23-2.66a.83.83,0,0,0-.26.17,1.18,1.18,0,0,0-.2.28,1.6,1.6,0,0,0-.11.39h1.71v0a1,1,0,0,0-.06-.32.9.9,0,0,0-.16-.29.71.71,0,0,0-.25-.2A.8.8,0,0,0,124,129,.87.87,0,0,0,123.71,129.11Z"/><path class="cls-4" d="M129,130.68a1.9,1.9,0,0,1-.09.36,1.33,1.33,0,0,1-.21.39,1,1,0,0,1-.3.29,1.39,1.39,0,0,1-.28.12,1.27,1.27,0,0,1-.34,0,1.44,1.44,0,0,1-.37,0,1.05,1.05,0,0,1-.3-.15l-.13-.1-.11-.12,0,.36h-.5v-4.5h.54V129l.15-.16a.78.78,0,0,1,.18-.11.69.69,0,0,1,.25-.1,1.55,1.55,0,0,1,.31,0,1.21,1.21,0,0,1,.38.06.89.89,0,0,1,.31.15,1.25,1.25,0,0,1,.23.23,2.75,2.75,0,0,1,.17.29,2.26,2.26,0,0,1,.16.89v.06A2.6,2.6,0,0,1,129,130.68Zm-.53-.75a1.07,1.07,0,0,0-.06-.27,1.28,1.28,0,0,0-.13-.29.8.8,0,0,0-.21-.2l-.19-.08a.88.88,0,0,0-.24,0,.66.66,0,0,0-.25,0,.51.51,0,0,0-.21.1.61.61,0,0,0-.17.15.82.82,0,0,0-.12.2v1.38a1.37,1.37,0,0,0,.13.2.81.81,0,0,0,.16.16.68.68,0,0,0,.21.1.75.75,0,0,0,.26,0,.69.69,0,0,0,.25,0,.44.44,0,0,0,.19-.1.64.64,0,0,0,.2-.2,1.43,1.43,0,0,0,.13-.28,2,2,0,0,0,0-.26,2.45,2.45,0,0,0,0-.27v-.06A2.64,2.64,0,0,0,128.42,129.93Z"/><path class="cls-4" d="M132,130.81a.31.31,0,0,0-.12-.14l-.24-.12-.38-.1a3.17,3.17,0,0,1-.49-.13,1.77,1.77,0,0,1-.39-.19.74.74,0,0,1-.24-.26.64.64,0,0,1-.09-.34.74.74,0,0,1,.09-.36.89.89,0,0,1,.25-.3,1.43,1.43,0,0,1,.39-.2,1.63,1.63,0,0,1,.5-.07,1.74,1.74,0,0,1,.53.08,1.17,1.17,0,0,1,.4.21.93.93,0,0,1,.25.31.86.86,0,0,1,.09.39H132a.49.49,0,0,0-.05-.2.84.84,0,0,0-.15-.18.71.71,0,0,0-.23-.12.94.94,0,0,0-.3-.05,1.36,1.36,0,0,0-.3,0,.52.52,0,0,0-.21.11.47.47,0,0,0-.14.14.39.39,0,0,0,0,.18.47.47,0,0,0,0,.17.4.4,0,0,0,.13.13,1,1,0,0,0,.23.11l.37.09a3.25,3.25,0,0,1,.52.14,1.77,1.77,0,0,1,.39.19.84.84,0,0,1,.24.26.67.67,0,0,1,.08.35.79.79,0,0,1-.09.38.77.77,0,0,1-.27.3,1.35,1.35,0,0,1-.4.19,2.11,2.11,0,0,1-.52.07,1.72,1.72,0,0,1-.58-.09,1.3,1.3,0,0,1-.42-.23.91.91,0,0,1-.36-.72h.54a.58.58,0,0,0,.09.28.61.61,0,0,0,.2.19.69.69,0,0,0,.25.1,1.33,1.33,0,0,0,.28,0,1.46,1.46,0,0,0,.38,0,.76.76,0,0,0,.25-.15.25.25,0,0,0,.08-.12.32.32,0,0,0,0-.14A.37.37,0,0,0,132,130.81Z"/><path class="cls-4" d="M135.2,128.66v2.7h1v.47h-2.66v-.47h1.08v-2.23h-1.08v-.47Zm-.59-1a.36.36,0,0,1,.07-.1.21.21,0,0,1,.1-.06.27.27,0,0,1,.13,0,.3.3,0,0,1,.14,0,.21.21,0,0,1,.1.06.36.36,0,0,1,.07.1.59.59,0,0,1,0,.14.35.35,0,0,1-.08.22.37.37,0,0,1-.25.08.28.28,0,0,1-.32-.3A.68.68,0,0,1,134.61,127.69Z"/><path class="cls-4" d="M138.38,128.66h1.21v.42h-1.21v1.72a.85.85,0,0,0,.05.3.38.38,0,0,0,.13.19.4.4,0,0,0,.19.11.78.78,0,0,0,.22,0h.18l.19,0,.16,0,.13,0,.08.39-.17.07-.21.05-.24,0h-.25a1.29,1.29,0,0,1-.4-.06.79.79,0,0,1-.31-.2.8.8,0,0,1-.22-.33,1.47,1.47,0,0,1-.07-.5v-1.72H137v-.42h.84v-.77h.54Z"/><path class="cls-4" d="M141.48,131.77a1.27,1.27,0,0,1-.47-.32,1.44,1.44,0,0,1-.32-.48,1.75,1.75,0,0,1-.11-.62v-.12a1.73,1.73,0,0,1,.13-.69A1.64,1.64,0,0,1,141,129a1.51,1.51,0,0,1,.47-.32,1.44,1.44,0,0,1,1.13,0,1.23,1.23,0,0,1,.42.32,1.49,1.49,0,0,1,.26.5,2.39,2.39,0,0,1,.08.62v.24h-2.26v0a1.3,1.3,0,0,0,.09.41,1,1,0,0,0,.2.31.79.79,0,0,0,.31.22.87.87,0,0,0,.4.08,1.06,1.06,0,0,0,.51-.11A1.15,1.15,0,0,0,143,131l.33.25a1.41,1.41,0,0,1-.47.43,1.46,1.46,0,0,1-.78.19A1.59,1.59,0,0,1,141.48,131.77Zm.24-2.66a.77.77,0,0,0-.27.17,1.15,1.15,0,0,0-.19.28,1.27,1.27,0,0,0-.12.39h1.71v0a1,1,0,0,0-.06-.32.89.89,0,0,0-.15-.29.82.82,0,0,0-.25-.2A.8.8,0,0,0,142,129,.78.78,0,0,0,141.72,129.11Z"/><path class="cls-4" d="M149.93,131.67l0-.19a.93.93,0,0,1-.18.16l-.22.13-.26.08a1,1,0,0,1-.3,0,1.29,1.29,0,0,1-.45-.08.88.88,0,0,1-.34-.2.92.92,0,0,1-.23-.29.9.9,0,0,1-.07-.37,1,1,0,0,1,.1-.46,1,1,0,0,1,.29-.33,1.48,1.48,0,0,1,.46-.19,2.77,2.77,0,0,1,.6-.06h.59v-.25a.55.55,0,0,0,0-.26.48.48,0,0,0-.15-.2.71.71,0,0,0-.23-.12,1.08,1.08,0,0,0-.32,0,.82.82,0,0,0-.28,0,.51.51,0,0,0-.22.11.44.44,0,0,0-.14.16.41.41,0,0,0,0,.19h-.55a.69.69,0,0,1,.09-.34,1,1,0,0,1,.25-.3,1.39,1.39,0,0,1,.4-.22,1.67,1.67,0,0,1,.52-.08,1.59,1.59,0,0,1,.5.07,1.29,1.29,0,0,1,.41.19,1,1,0,0,1,.26.34,1.11,1.11,0,0,1,.1.46v1.48a2,2,0,0,0,0,.33.94.94,0,0,0,.08.31v.05H150A.5.5,0,0,1,149.93,131.67Zm-.61-.3a.93.93,0,0,0,.25-.1,1.08,1.08,0,0,0,.2-.16.94.94,0,0,0,.12-.18v-.64h-.5a2.31,2.31,0,0,0-.49.05.72.72,0,0,0-.33.15.43.43,0,0,0-.14.16.63.63,0,0,0,0,.44.33.33,0,0,0,.12.17.43.43,0,0,0,.2.11.76.76,0,0,0,.27,0A.94.94,0,0,0,149.32,131.37Z"/><path class="cls-4" d="M154.16,130.68q0,.19-.09.36a2.06,2.06,0,0,1-.21.39,1.22,1.22,0,0,1-.31.29,1.18,1.18,0,0,1-.28.12,1.14,1.14,0,0,1-.33,0,1.52,1.52,0,0,1-.38,0,1.05,1.05,0,0,1-.3-.15l-.12-.1-.11-.12,0,.36h-.5v-4.5H152V129l.15-.16.18-.11a.74.74,0,0,1,.26-.1,1.39,1.39,0,0,1,.3,0,1.16,1.16,0,0,1,.38.06.81.81,0,0,1,.31.15,1,1,0,0,1,.23.23,1.69,1.69,0,0,1,.17.29,1.79,1.79,0,0,1,.13.41,3.58,3.58,0,0,1,0,.48v.06A2.6,2.6,0,0,1,154.16,130.68Zm-.54-.75a1.86,1.86,0,0,0-.05-.27,1.3,1.3,0,0,0-.14-.29.8.8,0,0,0-.21-.2l-.19-.08a.85.85,0,0,0-.23,0,.71.71,0,0,0-.26,0,.51.51,0,0,0-.21.1.57.57,0,0,0-.16.15,1.37,1.37,0,0,0-.13.2v1.38a1.37,1.37,0,0,0,.13.2,1.21,1.21,0,0,0,.16.16.88.88,0,0,0,.22.1.8.8,0,0,0,.5,0,.54.54,0,0,0,.2-.1.61.61,0,0,0,.19-.2,1,1,0,0,0,.13-.28,2,2,0,0,0,.06-.26,2.44,2.44,0,0,0,0-.27v-.06A1.37,1.37,0,0,0,153.62,129.93Z"/><path class="cls-4" d="M155.05,129.58a1.4,1.4,0,0,1,.28-.51,1.44,1.44,0,0,1,.46-.35,1.4,1.4,0,0,1,.6-.12,1.46,1.46,0,0,1,.6.12,1.44,1.44,0,0,1,.46.35,1.56,1.56,0,0,1,.28.51,1.85,1.85,0,0,1,.1.63v.07a1.81,1.81,0,0,1-.1.63,1.56,1.56,0,0,1-.28.51,1.28,1.28,0,0,1-.46.34,1.45,1.45,0,0,1-1.2,0,1.28,1.28,0,0,1-.46-.34,1.4,1.4,0,0,1-.28-.51,1.81,1.81,0,0,1-.1-.63v-.07A1.85,1.85,0,0,1,155.05,129.58Zm.5,1.14a.94.94,0,0,0,.17.38.68.68,0,0,0,.28.25.81.81,0,0,0,.78,0,.78.78,0,0,0,.29-.25,1.09,1.09,0,0,0,.16-.38,1.61,1.61,0,0,0,.06-.44v-.07a1.61,1.61,0,0,0-.06-.44,1.05,1.05,0,0,0-.17-.37.77.77,0,0,0-.28-.26.81.81,0,0,0-.39-.1.85.85,0,0,0-.4.1.75.75,0,0,0-.27.26.9.9,0,0,0-.17.37,1.61,1.61,0,0,0-.06.44v.07A1.61,1.61,0,0,0,155.55,130.72Z"/><path class="cls-4" d="M160.76,131.39a1.18,1.18,0,0,1-.4.37,1.21,1.21,0,0,1-.55.13,1.33,1.33,0,0,1-.45-.08.81.81,0,0,1-.34-.24,1.05,1.05,0,0,1-.22-.42,1.84,1.84,0,0,1-.08-.61v-1.88h.54v1.89a1.8,1.8,0,0,0,0,.43.85.85,0,0,0,.12.27.66.66,0,0,0,.2.14.82.82,0,0,0,.28,0,1,1,0,0,0,.32,0,.83.83,0,0,0,.25-.12.75.75,0,0,0,.16-.15,1.18,1.18,0,0,0,.11-.19v-2.27h.54v3.17h-.49Z"/><path class="cls-4" d="M163.58,128.66h1.21v.42h-1.21v1.72a.85.85,0,0,0,0,.3.51.51,0,0,0,.32.3.85.85,0,0,0,.23,0h.18l.18,0,.17,0,.13,0,.07.39-.16.07-.21.05-.24,0H164a1.23,1.23,0,0,1-.39-.06.76.76,0,0,1-.32-.2.78.78,0,0,1-.21-.33,1.25,1.25,0,0,1-.08-.5v-1.72h-.83v-.42H163v-.77h.54Z"/><path class="cls-4" d="M170.79,128.66H172v.42h-1.2v1.72a.87.87,0,0,0,0,.3.46.46,0,0,0,.13.19.52.52,0,0,0,.19.11.85.85,0,0,0,.23,0h.18l.18,0,.17,0,.13,0,.07.39-.16.07-.21.05-.24,0h-.26a1.23,1.23,0,0,1-.39-.06.83.83,0,0,1-.32-.2.78.78,0,0,1-.21-.33,1.46,1.46,0,0,1-.08-.5v-1.72h-.83v-.42h.83v-.77h.55Z"/><path class="cls-4" d="M173.79,129l.17-.14a.81.81,0,0,1,.31-.15,1,1,0,0,1,.35-.06,1.35,1.35,0,0,1,.46.07.79.79,0,0,1,.34.23,1,1,0,0,1,.22.38,1.55,1.55,0,0,1,.08.55v2h-.54v-2a1.06,1.06,0,0,0,0-.33.68.68,0,0,0-.13-.24.51.51,0,0,0-.23-.15.8.8,0,0,0-.32-.05.86.86,0,0,0-.28,0,1.34,1.34,0,0,0-.24.12l-.16.13a.75.75,0,0,0-.13.18v2.3h-.55v-4.5h.55v1.8Z"/><path class="cls-4" d="M177.49,131.77a1.23,1.23,0,0,1-.48-.32,1.42,1.42,0,0,1-.31-.48,1.75,1.75,0,0,1-.11-.62v-.12a1.92,1.92,0,0,1,.12-.69A1.5,1.5,0,0,1,177,129a1.59,1.59,0,0,1,.46-.32,1.44,1.44,0,0,1,1.13,0,1.27,1.27,0,0,1,.43.32,1.47,1.47,0,0,1,.25.5,2,2,0,0,1,.09.62v.24h-2.27v0a2.26,2.26,0,0,0,.09.41,1.27,1.27,0,0,0,.2.31,1,1,0,0,0,.31.22.9.9,0,0,0,.4.08,1.08,1.08,0,0,0,.52-.11A1.12,1.12,0,0,0,179,131l.33.25a1.32,1.32,0,0,1-.47.43,1.46,1.46,0,0,1-.78.19A1.54,1.54,0,0,1,177.49,131.77Zm.23-2.66a.83.83,0,0,0-.26.17,1,1,0,0,0-.2.28,1.6,1.6,0,0,0-.11.39h1.7v0a.93.93,0,0,0,0-.32.9.9,0,0,0-.16-.29.71.71,0,0,0-.25-.2A.8.8,0,0,0,178,129,.82.82,0,0,0,177.72,129.11Z"/><path class="cls-4" d="M186.59,130.45a1.47,1.47,0,0,1-.11.56,1.25,1.25,0,0,1-.29.45,1.14,1.14,0,0,1-.44.31,1.28,1.28,0,0,1-.56.12,1.47,1.47,0,0,1-.56-.11,1.4,1.4,0,0,1-.44-.31,1.42,1.42,0,0,1-.28-.46,1.47,1.47,0,0,1-.11-.56v-2.89h.51l0,2.89a1.15,1.15,0,0,0,.06.37.92.92,0,0,0,.16.31.71.71,0,0,0,.27.21.71.71,0,0,0,.36.09.87.87,0,0,0,.37-.08,1,1,0,0,0,.27-.22,1.14,1.14,0,0,0,.16-.31,1.51,1.51,0,0,0,.06-.37v-2.89h.52Z"/><path class="cls-4" d="M189.63,131.83,188,128.64v3.19h-.55v-4.27H188l1.65,3.18v-3.18h.55v4.27Z"/><path class="cls-4" d="M196.77,130.81a.31.31,0,0,0-.12-.14l-.24-.12-.38-.1a3.17,3.17,0,0,1-.49-.13,1.77,1.77,0,0,1-.39-.19.74.74,0,0,1-.24-.26.64.64,0,0,1-.09-.34.74.74,0,0,1,.09-.36.89.89,0,0,1,.25-.3,1.43,1.43,0,0,1,.39-.2,1.63,1.63,0,0,1,.5-.07,1.69,1.69,0,0,1,.53.08,1.17,1.17,0,0,1,.4.21.93.93,0,0,1,.25.31.86.86,0,0,1,.09.39h-.54a.49.49,0,0,0-.05-.2.84.84,0,0,0-.15-.18.71.71,0,0,0-.23-.12.85.85,0,0,0-.3-.05,1.36,1.36,0,0,0-.3,0,.52.52,0,0,0-.21.11.47.47,0,0,0-.14.14.39.39,0,0,0,0,.18.33.33,0,0,0,0,.17.29.29,0,0,0,.12.13,1,1,0,0,0,.23.11l.37.09a3.25,3.25,0,0,1,.52.14,1.77,1.77,0,0,1,.39.19.73.73,0,0,1,.24.26.67.67,0,0,1,.08.35.79.79,0,0,1-.09.38.77.77,0,0,1-.27.3,1.35,1.35,0,0,1-.4.19,2.11,2.11,0,0,1-.52.07,1.72,1.72,0,0,1-.58-.09,1.42,1.42,0,0,1-.42-.23.91.91,0,0,1-.36-.72h.54a.58.58,0,0,0,.09.28.61.61,0,0,0,.2.19.69.69,0,0,0,.25.1,1.33,1.33,0,0,0,.28,0,1.46,1.46,0,0,0,.38,0,.76.76,0,0,0,.25-.15.25.25,0,0,0,.08-.12.32.32,0,0,0,0-.14A.37.37,0,0,0,196.77,130.81Z"/><path class="cls-4" d="M200.36,131.39a1.06,1.06,0,0,1-.39.37,1.21,1.21,0,0,1-.55.13,1.25,1.25,0,0,1-.45-.08.85.85,0,0,1-.35-.24,1.19,1.19,0,0,1-.22-.42,2.15,2.15,0,0,1-.08-.61v-1.88h.55v1.89a1.8,1.8,0,0,0,0,.43.85.85,0,0,0,.12.27.56.56,0,0,0,.2.14.79.79,0,0,0,.28,0,1.08,1.08,0,0,0,.32,0,.83.83,0,0,0,.25-.12.54.54,0,0,0,.15-.15.72.72,0,0,0,.11-.19v-2.27h.55v3.17h-.49Z"/><path class="cls-4" d="M204,130.81a.43.43,0,0,0-.13-.14l-.24-.12-.38-.1a3.17,3.17,0,0,1-.49-.13,1.5,1.5,0,0,1-.38-.19.77.77,0,0,1-.25-.26.64.64,0,0,1-.09-.34.74.74,0,0,1,.09-.36,1,1,0,0,1,.25-.3,1.36,1.36,0,0,1,.4-.2,1.55,1.55,0,0,1,.5-.07,1.67,1.67,0,0,1,.52.08,1.17,1.17,0,0,1,.4.21,1.1,1.1,0,0,1,.26.31,1,1,0,0,1,.08.39H204a.49.49,0,0,0,0-.2.63.63,0,0,0-.15-.18.78.78,0,0,0-.22-.12.94.94,0,0,0-.3-.05,1.37,1.37,0,0,0-.31,0,.52.52,0,0,0-.21.11.47.47,0,0,0-.14.14.58.58,0,0,0,0,.18.33.33,0,0,0,0,.17.29.29,0,0,0,.12.13,1.24,1.24,0,0,0,.23.11l.37.09a3.25,3.25,0,0,1,.52.14,1.42,1.42,0,0,1,.39.19.73.73,0,0,1,.24.26.68.68,0,0,1,.09.35.8.8,0,0,1-.1.38.83.83,0,0,1-.26.3,1.55,1.55,0,0,1-.41.19,2.11,2.11,0,0,1-.52.07,1.66,1.66,0,0,1-.57-.09,1.36,1.36,0,0,1-.43-.23.91.91,0,0,1-.36-.72h.54a.58.58,0,0,0,.09.28.61.61,0,0,0,.2.19.69.69,0,0,0,.25.1l.28,0a1.46,1.46,0,0,0,.38,0,.66.66,0,0,0,.25-.15.2.2,0,0,0,.08-.12.32.32,0,0,0,0-.14A.52.52,0,0,0,204,130.81Z"/><path class="cls-4" d="M206.79,128.66H208v.42h-1.21v1.72a.85.85,0,0,0,.05.3.38.38,0,0,0,.13.19.4.4,0,0,0,.19.11.78.78,0,0,0,.22,0h.18l.19,0,.16,0,.13,0,.08.39-.17.07-.21.05-.24,0h-.25a1.34,1.34,0,0,1-.4-.06.79.79,0,0,1-.31-.2.91.91,0,0,1-.22-.33,1.47,1.47,0,0,1-.07-.5v-1.72h-.84v-.42h.84v-.77h.54Z"/><path class="cls-4" d="M211.14,131.67l0-.19a.93.93,0,0,1-.18.16l-.22.13-.26.08a1,1,0,0,1-.3,0,1.29,1.29,0,0,1-.45-.08,1,1,0,0,1-.35-.2,1.06,1.06,0,0,1-.22-.29.9.9,0,0,1-.07-.37,1,1,0,0,1,.1-.46,1,1,0,0,1,.29-.33,1.48,1.48,0,0,1,.46-.19,2.77,2.77,0,0,1,.6-.06h.59v-.25a.55.55,0,0,0,0-.26.48.48,0,0,0-.15-.2.71.71,0,0,0-.23-.12,1.08,1.08,0,0,0-.32,0,.82.82,0,0,0-.28,0,.51.51,0,0,0-.22.11.44.44,0,0,0-.14.16.41.41,0,0,0,0,.19h-.55a.69.69,0,0,1,.09-.34,1,1,0,0,1,.25-.3,1.47,1.47,0,0,1,.39-.22,1.78,1.78,0,0,1,.53-.08,1.59,1.59,0,0,1,.5.07,1.29,1.29,0,0,1,.41.19,1,1,0,0,1,.26.34,1.11,1.11,0,0,1,.1.46v1.48a2,2,0,0,0,0,.33.94.94,0,0,0,.08.31v.05h-.57A.5.5,0,0,1,211.14,131.67Zm-.61-.3a.93.93,0,0,0,.25-.1,1.08,1.08,0,0,0,.2-.16.94.94,0,0,0,.12-.18v-.64h-.5a2.31,2.31,0,0,0-.49.05.72.72,0,0,0-.33.15.43.43,0,0,0-.14.16.62.62,0,0,0,0,.44.33.33,0,0,0,.12.17.43.43,0,0,0,.2.11.76.76,0,0,0,.27,0A.94.94,0,0,0,210.53,131.37Z"/><path class="cls-4" d="M214.41,128.66v2.7h1v.47h-2.66v-.47h1.08v-2.23h-1.08v-.47Zm-.59-1a.36.36,0,0,1,.07-.1.21.21,0,0,1,.1-.06.32.32,0,0,1,.14,0,.27.27,0,0,1,.13,0,.21.21,0,0,1,.1.06.36.36,0,0,1,.07.1.59.59,0,0,1,0,.14.3.3,0,0,1-.08.22.35.35,0,0,1-.24.08.37.37,0,0,1-.25-.08.35.35,0,0,1-.08-.22A.68.68,0,0,1,213.82,127.69Z"/><path class="cls-4" d="M216.31,128.66h.49l0,.47a1.46,1.46,0,0,1,.16-.19.86.86,0,0,1,.18-.14,1.4,1.4,0,0,1,.3-.15,1.34,1.34,0,0,1,.35-.05,1.25,1.25,0,0,1,.45.07.84.84,0,0,1,.35.22,1,1,0,0,1,.22.38,1.73,1.73,0,0,1,.08.55v2h-.54v-2a1.25,1.25,0,0,0,0-.36.57.57,0,0,0-.14-.24.54.54,0,0,0-.22-.13,1,1,0,0,0-.31,0,.86.86,0,0,0-.28,0,1,1,0,0,0-.23.12.8.8,0,0,0-.17.15,1.18,1.18,0,0,0-.13.18v2.28h-.54Z"/><path class="cls-4" d="M221.94,131.67l0-.19a.93.93,0,0,1-.18.16l-.22.13-.26.08a.92.92,0,0,1-.29,0,1.34,1.34,0,0,1-.46-.08.88.88,0,0,1-.34-.2.86.86,0,0,1-.3-.66,1,1,0,0,1,.1-.46.94.94,0,0,1,.3-.33,1.39,1.39,0,0,1,.46-.19,2.61,2.61,0,0,1,.59-.06h.6v-.25a.55.55,0,0,0-.06-.26.48.48,0,0,0-.15-.2.71.71,0,0,0-.23-.12,1.06,1.06,0,0,0-.31,0,.85.85,0,0,0-.29,0,.51.51,0,0,0-.22.11.34.34,0,0,0-.13.16.32.32,0,0,0-.05.19h-.55a.69.69,0,0,1,.09-.34,1,1,0,0,1,.25-.3,1.39,1.39,0,0,1,.4-.22,1.81,1.81,0,0,1,1,0,1.34,1.34,0,0,1,.4.19.88.88,0,0,1,.26.34,1,1,0,0,1,.1.46v1.48a2,2,0,0,0,0,.33,1.27,1.27,0,0,0,.08.31v.05H222A.5.5,0,0,1,221.94,131.67Zm-.61-.3a.93.93,0,0,0,.25-.1,1.08,1.08,0,0,0,.2-.16l.13-.18v-.64h-.51a2.31,2.31,0,0,0-.49.05.72.72,0,0,0-.33.15.4.4,0,0,0-.13.16.42.42,0,0,0,0,.22.54.54,0,0,0,0,.22.52.52,0,0,0,.12.17.43.43,0,0,0,.2.11.78.78,0,0,0,.28,0A.93.93,0,0,0,221.33,131.37Z"/><path class="cls-4" d="M226.17,130.68a1.9,1.9,0,0,1-.09.36,1.62,1.62,0,0,1-.21.39,1.07,1.07,0,0,1-.31.29,1.18,1.18,0,0,1-.28.12,1.14,1.14,0,0,1-.33,0,1.38,1.38,0,0,1-.37,0,1,1,0,0,1-.31-.15l-.12-.1-.11-.12,0,.36h-.5v-4.5h.55V129a.75.75,0,0,1,.15-.16l.17-.11a.82.82,0,0,1,.26-.1,1.39,1.39,0,0,1,.3,0,1.12,1.12,0,0,1,.38.06.94.94,0,0,1,.32.15,1.21,1.21,0,0,1,.22.23,1.75,1.75,0,0,1,.18.29,2.45,2.45,0,0,1,.12.41,3.58,3.58,0,0,1,0,.48v.06A2.6,2.6,0,0,1,226.17,130.68Zm-.53-.75q0-.15-.06-.27a1.3,1.3,0,0,0-.14-.29.58.58,0,0,0-.21-.2l-.19-.08a.8.8,0,0,0-.23,0,.75.75,0,0,0-.26,0,.51.51,0,0,0-.21.1.75.75,0,0,0-.16.15.82.82,0,0,0-.12.2v1.38a.82.82,0,0,0,.12.2.87.87,0,0,0,.17.16.68.68,0,0,0,.21.1.69.69,0,0,0,.25,0,.66.66,0,0,0,.25,0,.47.47,0,0,0,.2-.1.76.76,0,0,0,.2-.2,1.39,1.39,0,0,0,.12-.28,1.1,1.1,0,0,0,.06-.26,2.45,2.45,0,0,0,0-.27v-.06A2.64,2.64,0,0,0,225.64,129.93Z"/><path class="cls-4" d="M228.82,127.33v4h1v.47H227.2v-.47h1.07V127.8H227.2v-.47Z"/><path class="cls-4" d="M231.5,131.77a1.23,1.23,0,0,1-.48-.32,1.42,1.42,0,0,1-.31-.48,1.75,1.75,0,0,1-.11-.62v-.12a1.92,1.92,0,0,1,.12-.69,1.5,1.5,0,0,1,.33-.51,1.47,1.47,0,0,1,.46-.32,1.44,1.44,0,0,1,1.13,0,1.38,1.38,0,0,1,.43.32,1.47,1.47,0,0,1,.25.5,2,2,0,0,1,.08.62v.24h-2.26v0a1.3,1.3,0,0,0,.09.41,1.27,1.27,0,0,0,.2.31,1,1,0,0,0,.31.22.9.9,0,0,0,.4.08,1.08,1.08,0,0,0,.52-.11A1.12,1.12,0,0,0,233,131l.33.25a1.32,1.32,0,0,1-.47.43,1.46,1.46,0,0,1-.78.19A1.54,1.54,0,0,1,231.5,131.77Zm.23-2.66a.73.73,0,0,0-.26.17,1,1,0,0,0-.2.28,1.6,1.6,0,0,0-.11.39h1.7v0a1.25,1.25,0,0,0-.05-.32.9.9,0,0,0-.16-.29.71.71,0,0,0-.25-.2A.8.8,0,0,0,232,129,.82.82,0,0,0,231.73,129.11Z"/><path class="cls-4" d="M237.9,129.56a1.75,1.75,0,0,1,.26-.51,1.16,1.16,0,0,1,.4-.33,1.11,1.11,0,0,1,.52-.12,1.15,1.15,0,0,1,.5.1,1,1,0,0,1,.36.27v-1.64h.55v4.5H240l0-.34a1.07,1.07,0,0,1-.37.3,1.38,1.38,0,0,1-.52.1,1,1,0,0,1-.52-.13,1.14,1.14,0,0,1-.39-.34,1.53,1.53,0,0,1-.26-.51,2.13,2.13,0,0,1-.09-.63v-.06A2.29,2.29,0,0,1,237.9,129.56Zm.5,1.16a1.19,1.19,0,0,0,.16.36.69.69,0,0,0,.26.25.71.71,0,0,0,.39.1.73.73,0,0,0,.45-.13.83.83,0,0,0,.28-.33V129.5a1,1,0,0,0-.28-.32.79.79,0,0,0-.45-.12.7.7,0,0,0-.65.35,1.25,1.25,0,0,0-.16.37,2,2,0,0,0-.05.44v.06A2.12,2.12,0,0,0,238.4,130.72Z"/><path class="cls-4" d="M242.3,131.77a1.23,1.23,0,0,1-.48-.32,1.59,1.59,0,0,1-.31-.48,1.75,1.75,0,0,1-.11-.62v-.12a1.92,1.92,0,0,1,.12-.69,1.5,1.5,0,0,1,.33-.51,1.59,1.59,0,0,1,.46-.32,1.44,1.44,0,0,1,1.13,0,1.27,1.27,0,0,1,.43.32,1.47,1.47,0,0,1,.25.5,2,2,0,0,1,.09.62v.24h-2.27v0a2.26,2.26,0,0,0,.09.41,1.27,1.27,0,0,0,.2.31,1,1,0,0,0,.31.22.9.9,0,0,0,.4.08,1.08,1.08,0,0,0,.52-.11,1.12,1.12,0,0,0,.37-.31l.34.25a1.49,1.49,0,0,1-1.26.62A1.54,1.54,0,0,1,242.3,131.77Zm.23-2.66a.83.83,0,0,0-.26.17,1.18,1.18,0,0,0-.2.28,1.6,1.6,0,0,0-.11.39h1.7v0a.93.93,0,0,0,0-.32.9.9,0,0,0-.16-.29.71.71,0,0,0-.25-.2.8.8,0,0,0-.36-.08A.82.82,0,0,0,242.53,129.11Z"/><path class="cls-4" d="M244.89,128.66h.56l.91,2.39,0,.2.05-.2.89-2.39h.55l-1.29,3.17h-.41Z"/><path class="cls-4" d="M249.5,131.77a1.31,1.31,0,0,1-.48-.32,1.59,1.59,0,0,1-.31-.48,1.75,1.75,0,0,1-.11-.62v-.12a1.92,1.92,0,0,1,.12-.69,1.87,1.87,0,0,1,.33-.51,1.59,1.59,0,0,1,.46-.32,1.47,1.47,0,0,1,1.14,0,1.34,1.34,0,0,1,.42.32,1.47,1.47,0,0,1,.25.5,2,2,0,0,1,.09.62v.24h-2.27v0a2.26,2.26,0,0,0,.09.41,1.27,1.27,0,0,0,.2.31,1,1,0,0,0,.31.22.91.91,0,0,0,.41.08,1.06,1.06,0,0,0,.51-.11A1.15,1.15,0,0,0,251,131l.33.25a1.49,1.49,0,0,1-1.25.62A1.56,1.56,0,0,1,249.5,131.77Zm.23-2.66a.83.83,0,0,0-.26.17,1.18,1.18,0,0,0-.2.28,1.6,1.6,0,0,0-.11.39h1.71v0a1,1,0,0,0-.06-.32.9.9,0,0,0-.16-.29.71.71,0,0,0-.25-.2.78.78,0,0,0-.35-.08A.88.88,0,0,0,249.73,129.11Z"/><path class="cls-4" d="M254,127.33v4h1v.47H252.4v-.47h1.08V127.8H252.4v-.47Z"/><path class="cls-4" d="M255.86,129.58a1.58,1.58,0,0,1,.29-.51,1.3,1.3,0,0,1,.45-.35,1.59,1.59,0,0,1,1.21,0,1.3,1.3,0,0,1,.45.35,1.42,1.42,0,0,1,.29.51,2.13,2.13,0,0,1,.1.63v.07a2.08,2.08,0,0,1-.1.63,1.42,1.42,0,0,1-.29.51,1.17,1.17,0,0,1-.45.34,1.32,1.32,0,0,1-.6.13,1.33,1.33,0,0,1-.61-.13,1.17,1.17,0,0,1-.45-.34,1.58,1.58,0,0,1-.29-.51,2.08,2.08,0,0,1-.1-.63v-.07A2.13,2.13,0,0,1,255.86,129.58Zm.5,1.14a1.33,1.33,0,0,0,.17.38.83.83,0,0,0,.28.25.77.77,0,0,0,.4.1.71.71,0,0,0,.39-.1.75.75,0,0,0,.28-.25,1.1,1.1,0,0,0,.17-.38,1.61,1.61,0,0,0,.05-.44v-.07a1.61,1.61,0,0,0-.05-.44,1.26,1.26,0,0,0-.17-.37.86.86,0,0,0-.28-.26.88.88,0,0,0-.4-.1.81.81,0,0,0-.39.1.86.86,0,0,0-.28.26,1.26,1.26,0,0,0-.17.37,1.61,1.61,0,0,0-.05.44v.07A1.61,1.61,0,0,0,256.36,130.72Z"/><path class="cls-4" d="M259.51,128.66h.5l0,.34a.93.93,0,0,1,.14-.14.61.61,0,0,1,.16-.12,1.08,1.08,0,0,1,.27-.1,1.15,1.15,0,0,1,.33,0,1.19,1.19,0,0,1,.54.12,1.23,1.23,0,0,1,.39.33,1.5,1.5,0,0,1,.24.51,2.71,2.71,0,0,1,.08.66v.06a2.53,2.53,0,0,1-.08.63,1.34,1.34,0,0,1-.24.51,1.14,1.14,0,0,1-.39.34,1,1,0,0,1-.53.13,1.76,1.76,0,0,1-.34,0,1,1,0,0,1-.28-.11.78.78,0,0,1-.15-.1.68.68,0,0,1-.12-.12v1.53h-.55Zm2.09,1.12a1.25,1.25,0,0,0-.16-.37.84.84,0,0,0-.27-.26.8.8,0,0,0-.39-.09.88.88,0,0,0-.24,0l-.19.08a.73.73,0,0,0-.16.14,1,1,0,0,0-.13.18V131a.91.91,0,0,0,.11.16.47.47,0,0,0,.15.13.68.68,0,0,0,.21.1,1,1,0,0,0,.25,0,.8.8,0,0,0,.39-.09.75.75,0,0,0,.27-.26,1.25,1.25,0,0,0,.16-.37,2.12,2.12,0,0,0,0-.44v-.06A2,2,0,0,0,261.6,129.78Z"/><path class="cls-4" d="M263.38,129a.72.72,0,0,1,.26-.26.64.64,0,0,1,.37-.1.8.8,0,0,1,.23,0,.49.49,0,0,1,.18.08.47.47,0,0,1,.1.1.57.57,0,0,1,.08.13.6.6,0,0,1,.09-.13l.12-.1.19-.08a.73.73,0,0,1,.22,0,.84.84,0,0,1,.29.05.59.59,0,0,1,.23.14.87.87,0,0,1,.15.27,1.62,1.62,0,0,1,.05.4v2.37h-.51v-2.37a.48.48,0,0,0,0-.18.52.52,0,0,0-.06-.13l-.12-.07-.16,0a.47.47,0,0,0-.17,0,.26.26,0,0,0-.11.07.25.25,0,0,0-.08.1.58.58,0,0,0,0,.14v2.43h-.52v-2.38a.47.47,0,0,0,0-.17.27.27,0,0,0-.07-.13.41.41,0,0,0-.11-.07l-.15,0-.17,0-.12.06-.07.08a.25.25,0,0,0,0,.09v2.52h-.52v-3.17h.49Z"/><path class="cls-4" d="M267.51,131.77a1.23,1.23,0,0,1-.48-.32,1.28,1.28,0,0,1-.31-.48,1.56,1.56,0,0,1-.12-.62v-.12a1.93,1.93,0,0,1,.13-.69,1.5,1.5,0,0,1,.33-.51,1.36,1.36,0,0,1,.46-.32,1.44,1.44,0,0,1,1.13,0,1.23,1.23,0,0,1,.42.32,1.49,1.49,0,0,1,.26.5,2.39,2.39,0,0,1,.08.62v.24h-2.26v0a1.3,1.3,0,0,0,.09.41,1,1,0,0,0,.2.31.95.95,0,0,0,.71.3,1.06,1.06,0,0,0,.51-.11A1.15,1.15,0,0,0,269,131l.33.25a1.41,1.41,0,0,1-.47.43,1.46,1.46,0,0,1-.78.19A1.51,1.51,0,0,1,267.51,131.77Zm.23-2.66a.77.77,0,0,0-.27.17,1.15,1.15,0,0,0-.19.28,1.61,1.61,0,0,0-.12.39h1.71v0a1,1,0,0,0-.06-.32.89.89,0,0,0-.15-.29.82.82,0,0,0-.25-.2.8.8,0,0,0-.36-.08A.82.82,0,0,0,267.74,129.11Z"/><path class="cls-4" d="M270.32,128.66h.49l0,.47a1.46,1.46,0,0,1,.16-.19l.17-.14a1.77,1.77,0,0,1,.31-.15,1.34,1.34,0,0,1,.35-.05,1.25,1.25,0,0,1,.45.07.91.91,0,0,1,.35.22,1,1,0,0,1,.22.38,1.73,1.73,0,0,1,.08.55v2h-.54v-2a1.25,1.25,0,0,0-.05-.36.57.57,0,0,0-.14-.24.61.61,0,0,0-.22-.13,1,1,0,0,0-.31,0,.86.86,0,0,0-.28,0l-.24.12a1.1,1.1,0,0,0-.16.15,1.18,1.18,0,0,0-.13.18v2.28h-.54Z"/><path class="cls-4" d="M275.2,128.66h1.21v.42H275.2v1.72a.85.85,0,0,0,.05.3.38.38,0,0,0,.13.19.45.45,0,0,0,.19.11.78.78,0,0,0,.22,0H276l.18,0,.17,0,.12,0,.08.39-.16.07-.22.05-.24,0h-.25a1.23,1.23,0,0,1-.39-.06.76.76,0,0,1-.32-.2.78.78,0,0,1-.21-.33,1.25,1.25,0,0,1-.08-.5v-1.72h-.83v-.42h.83v-.77h.54Z"/><path class="cls-4" d="M281.11,129.56a1.52,1.52,0,0,1,.25-.51,1.16,1.16,0,0,1,.4-.33,1.12,1.12,0,0,1,.53-.12,1.34,1.34,0,0,1,.35,0,1.51,1.51,0,0,1,.29.13l.13.11a1.36,1.36,0,0,1,.12.12l0-.34h.5v3.1a1.6,1.6,0,0,1-.1.56,1.2,1.2,0,0,1-.28.41,1.29,1.29,0,0,1-.42.26,1.63,1.63,0,0,1-.55.09l-.28,0-.32-.09a1.34,1.34,0,0,1-.31-.17,1.07,1.07,0,0,1-.26-.26l.28-.33a2.08,2.08,0,0,0,.21.21,1.2,1.2,0,0,0,.21.13.81.81,0,0,0,.22.07.75.75,0,0,0,.21,0,1,1,0,0,0,.35,0,.74.74,0,0,0,.44-.43,1.36,1.36,0,0,0,0-.36v-.28a.8.8,0,0,1-.13.13l-.14.11a1.33,1.33,0,0,1-.28.1,1.55,1.55,0,0,1-.32,0,1,1,0,0,1-.52-.13,1.09,1.09,0,0,1-.4-.34,1.52,1.52,0,0,1-.25-.51,2.13,2.13,0,0,1-.09-.63v-.06A2.29,2.29,0,0,1,281.11,129.56Zm.5,1.16a.85.85,0,0,0,.16.36.63.63,0,0,0,.26.25.71.71,0,0,0,.39.1.69.69,0,0,0,.25,0,.72.72,0,0,0,.2-.09.75.75,0,0,0,.16-.15.76.76,0,0,0,.12-.19v-1.45a.57.57,0,0,0-.12-.18.7.7,0,0,0-.16-.14l-.2-.1a1,1,0,0,0-.25,0,.8.8,0,0,0-.39.09.72.72,0,0,0-.26.26.89.89,0,0,0-.16.37,2,2,0,0,0-.05.44v.06A2.12,2.12,0,0,0,281.61,130.72Z"/><path class="cls-4" d="M284.67,129.58a1.28,1.28,0,0,1,.29-.51,1.3,1.3,0,0,1,.45-.35,1.4,1.4,0,0,1,.6-.12,1.46,1.46,0,0,1,.6.12,1.44,1.44,0,0,1,.46.35,1.4,1.4,0,0,1,.28.51,1.85,1.85,0,0,1,.1.63v.07a1.81,1.81,0,0,1-.1.63,1.4,1.4,0,0,1-.28.51,1.28,1.28,0,0,1-.46.34,1.26,1.26,0,0,1-.6.13,1.32,1.32,0,0,1-.6-.13,1.17,1.17,0,0,1-.45-.34,1.28,1.28,0,0,1-.29-.51,1.81,1.81,0,0,1-.1-.63v-.07A1.85,1.85,0,0,1,284.67,129.58Zm.5,1.14a.94.94,0,0,0,.17.38.68.68,0,0,0,.28.25.81.81,0,0,0,.78,0,.78.78,0,0,0,.29-.25,1.09,1.09,0,0,0,.16-.38,1.61,1.61,0,0,0,.06-.44v-.07a1.61,1.61,0,0,0-.06-.44,1.05,1.05,0,0,0-.17-.37.77.77,0,0,0-.28-.26.81.81,0,0,0-.39-.1.88.88,0,0,0-.4.1.75.75,0,0,0-.27.26.9.9,0,0,0-.17.37,1.61,1.61,0,0,0-.06.44v.07A1.61,1.61,0,0,0,285.17,130.72Z"/><path class="cls-4" d="M290.35,131.67a1.11,1.11,0,0,1,0-.19l-.19.16a1.16,1.16,0,0,1-.22.13l-.26.08a.92.92,0,0,1-.29,0,1.34,1.34,0,0,1-.46-.08,1,1,0,0,1-.34-.2.86.86,0,0,1-.3-.66,1,1,0,0,1,.1-.46.94.94,0,0,1,.3-.33,1.39,1.39,0,0,1,.46-.19,2.64,2.64,0,0,1,.6-.06h.59v-.25a.55.55,0,0,0-.06-.26.48.48,0,0,0-.15-.2.71.71,0,0,0-.23-.12,1,1,0,0,0-.31,0,.85.85,0,0,0-.29,0,.51.51,0,0,0-.22.11.34.34,0,0,0-.13.16.32.32,0,0,0-.05.19h-.55a.82.82,0,0,1,.09-.34,1,1,0,0,1,.25-.3,1.39,1.39,0,0,1,.4-.22,1.69,1.69,0,0,1,.53-.08,1.63,1.63,0,0,1,.5.07,1.24,1.24,0,0,1,.4.19.88.88,0,0,1,.26.34,1,1,0,0,1,.1.46v1.48a2,2,0,0,0,0,.33,2,2,0,0,0,.08.31v.05h-.57A1,1,0,0,1,290.35,131.67Zm-.61-.3a.93.93,0,0,0,.25-.1,1.08,1.08,0,0,0,.2-.16,1,1,0,0,0,.13-.18v-.64h-.51a2.38,2.38,0,0,0-.49.05.72.72,0,0,0-.33.15.4.4,0,0,0-.13.16.54.54,0,0,0-.05.22.54.54,0,0,0,0,.22.52.52,0,0,0,.12.17.43.43,0,0,0,.2.11.78.78,0,0,0,.28,0A.93.93,0,0,0,289.74,131.37Z"/><path class="cls-4" d="M293.63,127.33v4h1v.47H292v-.47h1.08V127.8H292v-.47Z"/><path class="cls-4" d="M297.59,130.81a.34.34,0,0,0-.13-.14l-.24-.12a3.72,3.72,0,0,0-.37-.1,3.31,3.31,0,0,1-.5-.13,1.68,1.68,0,0,1-.38-.19.77.77,0,0,1-.25-.26.64.64,0,0,1-.09-.34.65.65,0,0,1,.1-.36.89.89,0,0,1,.25-.3,1.43,1.43,0,0,1,.39-.2,1.59,1.59,0,0,1,.5-.07,1.74,1.74,0,0,1,.53.08,1.27,1.27,0,0,1,.4.21.93.93,0,0,1,.25.31.86.86,0,0,1,.09.39h-.54a.39.39,0,0,0-.06-.2.59.59,0,0,0-.14-.18.71.71,0,0,0-.23-.12.94.94,0,0,0-.3-.05,1.28,1.28,0,0,0-.3,0,.65.65,0,0,0-.22.11.43.43,0,0,0-.13.14.39.39,0,0,0,0,.18.47.47,0,0,0,0,.17.37.37,0,0,0,.12.13,1.67,1.67,0,0,0,.23.11l.37.09a3.39,3.39,0,0,1,.53.14,1.77,1.77,0,0,1,.39.19,1,1,0,0,1,.24.26.83.83,0,0,1,0,.73,1,1,0,0,1-.27.3,1.42,1.42,0,0,1-.41.19,2,2,0,0,1-.51.07,1.72,1.72,0,0,1-.58-.09,1.2,1.2,0,0,1-.42-.23.91.91,0,0,1-.36-.72h.54a.49.49,0,0,0,.09.28.58.58,0,0,0,.19.19.74.74,0,0,0,.26.1,1.27,1.27,0,0,0,.28,0,1.32,1.32,0,0,0,.37,0,.81.81,0,0,0,.26-.15.36.36,0,0,0,.08-.12.32.32,0,0,0,0-.14A.37.37,0,0,0,297.59,130.81Z"/><path class="cls-4" d="M302.67,129.58a1.42,1.42,0,0,1,.29-.51,1.3,1.3,0,0,1,.45-.35,1.46,1.46,0,0,1,.6-.12,1.43,1.43,0,0,1,.6.12,1.34,1.34,0,0,1,.46.35,1.4,1.4,0,0,1,.28.51,1.85,1.85,0,0,1,.1.63v.07a1.81,1.81,0,0,1-.1.63,1.4,1.4,0,0,1-.28.51,1.25,1.25,0,0,1-.45.34,1.32,1.32,0,0,1-.6.13,1.33,1.33,0,0,1-.61-.13,1.17,1.17,0,0,1-.45-.34,1.42,1.42,0,0,1-.29-.51,1.81,1.81,0,0,1-.1-.63v-.07A1.85,1.85,0,0,1,302.67,129.58Zm.5,1.14a1.1,1.1,0,0,0,.17.38.82.82,0,0,0,.68.35.76.76,0,0,0,.39-.1.83.83,0,0,0,.28-.25,1.33,1.33,0,0,0,.17-.38,2.12,2.12,0,0,0,.05-.44v-.07a1.61,1.61,0,0,0-.06-.44,1,1,0,0,0-.16-.37.82.82,0,0,0-1.07-.26.77.77,0,0,0-.28.26,1.05,1.05,0,0,0-.17.37,1.61,1.61,0,0,0-.06.44v.07A1.61,1.61,0,0,0,303.17,130.72Z"/><path class="cls-4" d="M307.13,129.08h-.87v-.42h.87v-.22a1.45,1.45,0,0,1,.09-.54,1,1,0,0,1,.26-.38.86.86,0,0,1,.39-.24,1.6,1.6,0,0,1,.51-.08h.23l.22,0,.15,0,.15,0-.07.44-.28-.07a1.79,1.79,0,0,0-.34,0,1,1,0,0,0-.32,0,.55.55,0,0,0-.24.13.58.58,0,0,0-.15.25.92.92,0,0,0-.05.35v.22h1.22v.42h-1.22v2.75h-.55Z"/><path class="cls-4" d="M313.51,129.56a1.73,1.73,0,0,1,.25-.51,1.26,1.26,0,0,1,.4-.33,1.15,1.15,0,0,1,.53-.12,1.25,1.25,0,0,1,.35,0,1.28,1.28,0,0,1,.29.13.69.69,0,0,1,.13.11.46.46,0,0,1,.12.12l0-.34h.49v3.1a1.4,1.4,0,0,1-.1.56,1,1,0,0,1-.27.41,1.24,1.24,0,0,1-.43.26,1.53,1.53,0,0,1-.54.09l-.28,0a1.92,1.92,0,0,1-.32-.09,1.41,1.41,0,0,1-.32-.17,1.28,1.28,0,0,1-.26-.26l.29-.33a1.34,1.34,0,0,0,.2.21,1.2,1.2,0,0,0,.21.13,1.11,1.11,0,0,0,.22.07.82.82,0,0,0,.22,0,1,1,0,0,0,.35,0,.65.65,0,0,0,.26-.17.59.59,0,0,0,.17-.26,1,1,0,0,0,.06-.36v-.28l-.13.13-.15.11a1.08,1.08,0,0,1-.27.1,1.65,1.65,0,0,1-.32,0,1,1,0,0,1-.53-.13,1.06,1.06,0,0,1-.39-.34,1.53,1.53,0,0,1-.26-.51,2.53,2.53,0,0,1-.08-.63v-.06A2.3,2.3,0,0,1,313.51,129.56Zm.51,1.16a1,1,0,0,0,.15.36.77.77,0,0,0,.26.25.71.71,0,0,0,.39.1.66.66,0,0,0,.25,0,.67.67,0,0,0,.21-.09.75.75,0,0,0,.16-.15l.12-.19v-1.45a1.4,1.4,0,0,0-.12-.18.58.58,0,0,0-.17-.14l-.2-.1a.88.88,0,0,0-.24,0,.75.75,0,0,0-.39.09.84.84,0,0,0-.27.26,1,1,0,0,0-.15.37,1.56,1.56,0,0,0,0,.44v.06A1.61,1.61,0,0,0,314,130.72Z"/><path class="cls-4" d="M317.91,131.77a1.39,1.39,0,0,1-.48-.32,1.59,1.59,0,0,1-.31-.48,1.75,1.75,0,0,1-.11-.62v-.12a1.73,1.73,0,0,1,.13-.69,1.64,1.64,0,0,1,.32-.51,1.51,1.51,0,0,1,.47-.32,1.36,1.36,0,0,1,.53-.11,1.43,1.43,0,0,1,.6.12,1.23,1.23,0,0,1,.42.32,1.49,1.49,0,0,1,.26.5,2.39,2.39,0,0,1,.08.62v.24h-2.27v0a1.64,1.64,0,0,0,.1.41,1,1,0,0,0,.19.31,1,1,0,0,0,.31.22.94.94,0,0,0,.41.08,1.06,1.06,0,0,0,.51-.11,1.15,1.15,0,0,0,.38-.31l.33.25a1.45,1.45,0,0,1-.48.43,1.42,1.42,0,0,1-.77.19A1.56,1.56,0,0,1,317.91,131.77Zm.24-2.66a.77.77,0,0,0-.27.17.92.92,0,0,0-.19.28,1.27,1.27,0,0,0-.12.39h1.71v0a1,1,0,0,0-.06-.32,1.13,1.13,0,0,0-.15-.29.82.82,0,0,0-.25-.2.83.83,0,0,0-.36-.08A.78.78,0,0,0,318.15,129.11Z"/><path class="cls-4" d="M320.73,128.66h.48l0,.47.15-.19.18-.14a1.77,1.77,0,0,1,.31-.15,1.34,1.34,0,0,1,.35-.05,1.29,1.29,0,0,1,.45.07.91.91,0,0,1,.35.22,1.09,1.09,0,0,1,.22.38,1.73,1.73,0,0,1,.08.55v2h-.54v-2a1.25,1.25,0,0,0-.05-.36.57.57,0,0,0-.14-.24.58.58,0,0,0-.23-.13,1,1,0,0,0-.3,0,.86.86,0,0,0-.28,0,.9.9,0,0,0-.24.12.75.75,0,0,0-.16.15,1.18,1.18,0,0,0-.13.18v2.28h-.54Z"/><path class="cls-4" d="M324.31,129.56a1.75,1.75,0,0,1,.26-.51,1.16,1.16,0,0,1,.4-.33,1.14,1.14,0,0,1,.52-.12,1.12,1.12,0,0,1,.5.1,1.07,1.07,0,0,1,.37.27v-1.64h.54v4.5h-.5l0-.34a1.1,1.1,0,0,1-.38.3,1.36,1.36,0,0,1-.51.1,1,1,0,0,1-.52-.13,1.09,1.09,0,0,1-.4-.34,1.52,1.52,0,0,1-.25-.51,2.13,2.13,0,0,1-.09-.63v-.06A2.3,2.3,0,0,1,324.31,129.56Zm.51,1.16a1,1,0,0,0,.15.36.72.72,0,0,0,.27.25.65.65,0,0,0,.38.1.73.73,0,0,0,.45-.13.85.85,0,0,0,.29-.33V129.5a1,1,0,0,0-.29-.32.76.76,0,0,0-.44-.12.8.8,0,0,0-.39.09.84.84,0,0,0-.27.26,1,1,0,0,0-.15.37,1.56,1.56,0,0,0-.05.44v.06A1.61,1.61,0,0,0,324.82,130.72Z"/><path class="cls-4" d="M328.72,131.77a1.23,1.23,0,0,1-.48-.32,1.28,1.28,0,0,1-.31-.48,1.56,1.56,0,0,1-.12-.62v-.12a1.73,1.73,0,0,1,.13-.69,1.5,1.5,0,0,1,.33-.51,1.36,1.36,0,0,1,.46-.32,1.44,1.44,0,0,1,1.13,0,1.23,1.23,0,0,1,.42.32,1.49,1.49,0,0,1,.26.5,2.39,2.39,0,0,1,.08.62v.24h-2.26v0a1.3,1.3,0,0,0,.09.41,1,1,0,0,0,.2.31.95.95,0,0,0,.71.3,1.06,1.06,0,0,0,.51-.11,1.15,1.15,0,0,0,.38-.31l.33.25a1.41,1.41,0,0,1-.47.43,1.46,1.46,0,0,1-.78.19A1.51,1.51,0,0,1,328.72,131.77Zm.23-2.66a.77.77,0,0,0-.27.17,1.15,1.15,0,0,0-.19.28,1.61,1.61,0,0,0-.12.39h1.71v0a1,1,0,0,0-.06-.32.89.89,0,0,0-.15-.29.82.82,0,0,0-.25-.2.8.8,0,0,0-.36-.08A.82.82,0,0,0,329,129.11Z"/><path class="cls-4" d="M333.92,128.62a.59.59,0,0,1,.24.06l-.07.53-.3-.06h-.3a1,1,0,0,0-.36.05.82.82,0,0,0-.28.14.73.73,0,0,0-.19.2,1.26,1.26,0,0,0-.13.26v2H332v-3.17h.52l0,.42v.08a1.53,1.53,0,0,1,.47-.41,1.26,1.26,0,0,1,.62-.15Z"/><path class="cls-4" d="M339.52,131.77a1.23,1.23,0,0,1-.48-.32,1.28,1.28,0,0,1-.31-.48,1.56,1.56,0,0,1-.11-.62v-.12a1.92,1.92,0,0,1,.12-.69,1.5,1.5,0,0,1,.33-.51,1.36,1.36,0,0,1,.46-.32,1.44,1.44,0,0,1,1.13,0,1.38,1.38,0,0,1,.43.32,1.67,1.67,0,0,1,.25.5,2.39,2.39,0,0,1,.08.62v.24h-2.26v0a1.3,1.3,0,0,0,.09.41,1,1,0,0,0,.2.31.95.95,0,0,0,.71.3,1.13,1.13,0,0,0,.52-.11,1.12,1.12,0,0,0,.37-.31l.33.25a1.32,1.32,0,0,1-.47.43,1.46,1.46,0,0,1-.78.19A1.51,1.51,0,0,1,339.52,131.77Zm.23-2.66a.65.65,0,0,0-.26.17,1,1,0,0,0-.2.28,1.25,1.25,0,0,0-.11.39h1.7v0a1,1,0,0,0-.06-.32.73.73,0,0,0-.15-.29.82.82,0,0,0-.25-.2.8.8,0,0,0-.36-.08A.82.82,0,0,0,339.75,129.11Z"/><path class="cls-4" d="M342.32,129.56a1.71,1.71,0,0,1,.24-.51,1.19,1.19,0,0,1,.95-.45,1.66,1.66,0,0,1,.32,0,1.09,1.09,0,0,1,.27.11l.15.1a.8.8,0,0,1,.13.13l0-.31h.5v4.39h-.54v-1.51l-.15.13a.59.59,0,0,1-.17.1.85.85,0,0,1-.24.09,1.36,1.36,0,0,1-.29,0,1,1,0,0,1-.54-.13,1.09,1.09,0,0,1-.4-.34,1.35,1.35,0,0,1-.25-.51,2.13,2.13,0,0,1-.09-.63v-.06A2.29,2.29,0,0,1,342.32,129.56Zm.5,1.16a1.25,1.25,0,0,0,.16.37.75.75,0,0,0,.27.26.8.8,0,0,0,.39.09l.23,0,.19-.08.17-.14a.83.83,0,0,0,.13-.18v-1.56a1.09,1.09,0,0,0-.13-.17.7.7,0,0,0-.16-.13l-.19-.08a.64.64,0,0,0-.24,0,.81.81,0,0,0-.39.1.84.84,0,0,0-.27.26,1.38,1.38,0,0,0-.16.37,2.22,2.22,0,0,0-.05.45v.06A2.12,2.12,0,0,0,342.82,130.72Z"/><path class="cls-4" d="M348,131.39a1.18,1.18,0,0,1-.4.37,1.21,1.21,0,0,1-.55.13,1.33,1.33,0,0,1-.45-.08.81.81,0,0,1-.34-.24,1.05,1.05,0,0,1-.22-.42,1.84,1.84,0,0,1-.08-.61v-1.88h.54v1.89a1.8,1.8,0,0,0,0,.43.85.85,0,0,0,.12.27.66.66,0,0,0,.2.14.86.86,0,0,0,.28,0,1,1,0,0,0,.32,0,.83.83,0,0,0,.25-.12.75.75,0,0,0,.16-.15,1.18,1.18,0,0,0,.11-.19v-2.27h.54v3.17H348Z"/><path class="cls-4" d="M351.56,131.67a1.11,1.11,0,0,1,0-.19l-.19.16a1.16,1.16,0,0,1-.22.13l-.26.08a.92.92,0,0,1-.29,0,1.34,1.34,0,0,1-.46-.08,1,1,0,0,1-.34-.2.86.86,0,0,1-.3-.66,1,1,0,0,1,.1-.46.94.94,0,0,1,.3-.33,1.39,1.39,0,0,1,.46-.19,2.64,2.64,0,0,1,.6-.06h.59v-.25a.55.55,0,0,0-.06-.26.48.48,0,0,0-.15-.2.71.71,0,0,0-.23-.12,1,1,0,0,0-.31,0,.85.85,0,0,0-.29,0,.51.51,0,0,0-.22.11.34.34,0,0,0-.13.16.32.32,0,0,0-.05.19h-.55a.82.82,0,0,1,.09-.34,1,1,0,0,1,.25-.3,1.39,1.39,0,0,1,.4-.22,1.69,1.69,0,0,1,.53-.08,1.63,1.63,0,0,1,.5.07,1.24,1.24,0,0,1,.4.19.88.88,0,0,1,.26.34,1,1,0,0,1,.1.46v1.48a2,2,0,0,0,0,.33,2,2,0,0,0,.08.31v.05h-.57A1,1,0,0,1,351.56,131.67Zm-.61-.3a.93.93,0,0,0,.25-.1,1.08,1.08,0,0,0,.2-.16,1,1,0,0,0,.13-.18v-.64H351a2.38,2.38,0,0,0-.49.05.72.72,0,0,0-.33.15.4.4,0,0,0-.13.16.54.54,0,0,0-.05.22.54.54,0,0,0,0,.22.52.52,0,0,0,.12.17.43.43,0,0,0,.2.11.78.78,0,0,0,.28,0A.93.93,0,0,0,351,131.37Z"/><path class="cls-4" d="M354.84,127.33v4h1v.47h-2.65v-.47h1.08V127.8h-1.08v-.47Z"/><path class="cls-4" d="M358.44,128.66v2.7h1v.47h-2.65v-.47h1.08v-2.23h-1.08v-.47Zm-.59-1a.23.23,0,0,1,.07-.1.15.15,0,0,1,.09-.06.5.5,0,0,1,.28,0,.18.18,0,0,1,.09.06.23.23,0,0,1,.07.1.32.32,0,0,1,0,.14.31.31,0,0,1-.09.22.4.4,0,0,1-.48,0,.3.3,0,0,1-.08-.22A.34.34,0,0,1,357.85,127.69Z"/><path class="cls-4" d="M361.62,128.66h1.2v.42h-1.2v1.72a.87.87,0,0,0,0,.3.46.46,0,0,0,.13.19.52.52,0,0,0,.19.11.85.85,0,0,0,.23,0h.18l.18,0,.17,0,.13,0,.07.39-.16.07-.21.05-.24,0h-.26a1.23,1.23,0,0,1-.39-.06.83.83,0,0,1-.32-.2.78.78,0,0,1-.21-.33,1.46,1.46,0,0,1-.08-.5v-1.72h-.83v-.42h.83v-.77h.55Z"/><path class="cls-4" d="M364,133.09l-.16,0,.09-.44h.26a.36.36,0,0,0,.2-.06.79.79,0,0,0,.17-.14.94.94,0,0,0,.12-.18,1.15,1.15,0,0,0,.08-.15l.22-.42-1.37-3h.61l.87,2,.14.39.15-.38.82-2.05h.6l-1.6,3.66a2.43,2.43,0,0,1-.15.26,1,1,0,0,1-.21.25,1,1,0,0,1-.28.2.92.92,0,0,1-.38.08Z"/><path class="cls-4" d="M174.81,134.53v4h1V139h-2.65v-.47h1.08V135h-1.08v-.47Z"/><path class="cls-4" d="M178.41,135.86v2.7h1V139h-2.65v-.47h1.08v-2.23h-1.08v-.47Zm-.59-1a.23.23,0,0,1,.07-.1.15.15,0,0,1,.09-.06.5.5,0,0,1,.28,0,.15.15,0,0,1,.09.06.23.23,0,0,1,.07.1.32.32,0,0,1,0,.14.31.31,0,0,1-.09.22.4.4,0,0,1-.48,0,.3.3,0,0,1-.08-.22A.34.34,0,0,1,177.82,134.89Z"/><path class="cls-4" d="M180.3,135.86h.49l0,.47.15-.19.18-.14a1.13,1.13,0,0,1,.66-.2,1.33,1.33,0,0,1,.45.07,1,1,0,0,1,.35.22,1.27,1.27,0,0,1,.22.38,1.75,1.75,0,0,1,.07.55v2h-.54v-2a1.28,1.28,0,0,0,0-.36.69.69,0,0,0-.14-.24.58.58,0,0,0-.23-.13,1,1,0,0,0-.31,0,.8.8,0,0,0-.27,0,.9.9,0,0,0-.24.12,1.15,1.15,0,0,0-.29.33V139h-.55Z"/><path class="cls-4" d="M184.46,137.93V139h-.55v-4.5h.55v2.75l.35-.38,1-1h.66l-1.28,1.32,1.48,1.85H186l-1.17-1.48Z"/><path class="cls-4" d="M192.39,135.86h1.21v.42h-1.21V138a.67.67,0,0,0,.05.3.56.56,0,0,0,.12.2.69.69,0,0,0,.19.1.85.85,0,0,0,.23,0h.18l.19,0,.16,0,.13,0,.08.39-.17.07-.21,0-.24,0h-.25a1.29,1.29,0,0,1-.4-.06.83.83,0,0,1-.32-.2.78.78,0,0,1-.21-.33,1.46,1.46,0,0,1-.08-.5v-1.72H191v-.42h.83v-.77h.55Z"/><path class="cls-4" d="M194.65,136.78a1.58,1.58,0,0,1,.29-.51,1.3,1.3,0,0,1,.45-.35,1.59,1.59,0,0,1,1.21,0,1.3,1.3,0,0,1,.45.35,1.42,1.42,0,0,1,.29.51,2.13,2.13,0,0,1,.1.63v.07a2.08,2.08,0,0,1-.1.63,1.42,1.42,0,0,1-.29.51,1.17,1.17,0,0,1-.45.34,1.32,1.32,0,0,1-.6.13,1.33,1.33,0,0,1-.61-.13,1.17,1.17,0,0,1-.45-.34,1.58,1.58,0,0,1-.29-.51,2.08,2.08,0,0,1-.1-.63v-.07A2.13,2.13,0,0,1,194.65,136.78Zm.5,1.14a1.33,1.33,0,0,0,.17.38.83.83,0,0,0,.28.25.77.77,0,0,0,.4.1.71.71,0,0,0,.39-.1.75.75,0,0,0,.28-.25,1.1,1.1,0,0,0,.17-.38,1.61,1.61,0,0,0,.06-.44v-.07a1.61,1.61,0,0,0-.06-.44,1.26,1.26,0,0,0-.17-.37.86.86,0,0,0-.28-.26.87.87,0,0,0-.4-.09.8.8,0,0,0-.39.09.86.86,0,0,0-.28.26,1.26,1.26,0,0,0-.17.37,1.61,1.61,0,0,0-.05.44v.07A1.61,1.61,0,0,0,195.15,137.92Z"/><path class="cls-4" d="M204.59,137.65a1.47,1.47,0,0,1-.1.56,1.56,1.56,0,0,1-.29.46,1.32,1.32,0,0,1-.44.3,1.31,1.31,0,0,1-.56.12,1.48,1.48,0,0,1-.57-.11,1.52,1.52,0,0,1-.44-.31,1.42,1.42,0,0,1-.28-.46,1.47,1.47,0,0,1-.1-.56v-2.89h.52v2.89a1.15,1.15,0,0,0,.22.68.71.71,0,0,0,.27.21.75.75,0,0,0,.37.09.8.8,0,0,0,.36-.08.84.84,0,0,0,.27-.22,1.15,1.15,0,0,0,.22-.68v-2.89h.53Z"/><path class="cls-4" d="M207.63,139,206,135.84V139h-.55v-4.27H206l1.65,3.18v-3.18h.55V139Z"/><path class="cls-4" d="M212.66,136.78a1.4,1.4,0,0,1,.28-.51,1.44,1.44,0,0,1,.46-.35,1.4,1.4,0,0,1,.6-.12,1.46,1.46,0,0,1,.6.12,1.44,1.44,0,0,1,.46.35,1.56,1.56,0,0,1,.28.51,1.85,1.85,0,0,1,.1.63v.07a1.81,1.81,0,0,1-.1.63,1.56,1.56,0,0,1-.28.51,1.28,1.28,0,0,1-.46.34,1.32,1.32,0,0,1-.6.13,1.41,1.41,0,0,1-1.06-.47,1.4,1.4,0,0,1-.28-.51,1.81,1.81,0,0,1-.1-.63v-.07A1.85,1.85,0,0,1,212.66,136.78Zm.49,1.14a1.33,1.33,0,0,0,.17.38.78.78,0,0,0,.29.25.81.81,0,0,0,.78,0,.86.86,0,0,0,.29-.25,1.09,1.09,0,0,0,.16-.38,1.61,1.61,0,0,0,.06-.44v-.07a1.61,1.61,0,0,0-.06-.44,1.05,1.05,0,0,0-.17-.37.77.77,0,0,0-.28-.26.8.8,0,0,0-.39-.09.84.84,0,0,0-.4.09.86.86,0,0,0-.28.26,1.26,1.26,0,0,0-.17.37,2.12,2.12,0,0,0-.05.44v.07A2.12,2.12,0,0,0,213.15,137.92Z"/><path class="cls-4" d="M217.12,136.28h-.87v-.42h.87v-.22a1.45,1.45,0,0,1,.09-.54,1,1,0,0,1,.25-.38,1,1,0,0,1,.39-.24,1.6,1.6,0,0,1,.51-.08l.23,0a1.81,1.81,0,0,1,.23,0l.14,0,.15,0-.06.44-.28-.07a1.87,1.87,0,0,0-.34,0,1.14,1.14,0,0,0-.33,0,.58.58,0,0,0-.23.13.72.72,0,0,0-.16.25,1.18,1.18,0,0,0-.05.35v.22h1.23v.42h-1.23V139h-.54Z"/><path class="cls-4" d="M220.72,136.28h-.87v-.42h.87v-.22a1.45,1.45,0,0,1,.09-.54,1,1,0,0,1,.25-.38,1,1,0,0,1,.39-.24,1.6,1.6,0,0,1,.51-.08l.23,0a1.81,1.81,0,0,1,.23,0l.14,0,.15,0-.06.44-.28-.07a1.87,1.87,0,0,0-.34,0,1.14,1.14,0,0,0-.33,0,.58.58,0,0,0-.23.13.72.72,0,0,0-.16.25,1.18,1.18,0,0,0-.05.35v.22h1.23v.42h-1.23V139h-.54Z"/><path class="cls-4" d="M225.22,135.86v2.7h1V139H223.6v-.47h1.07v-2.23H223.6v-.47Zm-.59-1a.24.24,0,0,1,.16-.16.32.32,0,0,1,.14,0,.27.27,0,0,1,.13,0,.17.17,0,0,1,.1.06.23.23,0,0,1,.07.1.32.32,0,0,1,0,.14.3.3,0,0,1-.08.22.4.4,0,0,1-.48,0,.31.31,0,0,1-.09-.22A.35.35,0,0,1,224.63,134.89Z"/><path class="cls-4" d="M228.75,138.6a.85.85,0,0,0,.25-.13.65.65,0,0,0,.17-.2.48.48,0,0,0,.07-.24h.51a.83.83,0,0,1-.11.4,1.13,1.13,0,0,1-.28.34,1.5,1.5,0,0,1-.41.23,1.37,1.37,0,0,1-.49.09,1.54,1.54,0,0,1-.63-.13,1.3,1.3,0,0,1-.45-.35,1.51,1.51,0,0,1-.27-.5,2,2,0,0,1-.09-.61v-.12a2,2,0,0,1,.09-.6,1.56,1.56,0,0,1,.27-.51,1.28,1.28,0,0,1,.45-.34,1.39,1.39,0,0,1,.63-.13,1.46,1.46,0,0,1,.52.09,1.38,1.38,0,0,1,.41.24,1.08,1.08,0,0,1,.26.37,1,1,0,0,1,.1.45h-.51a.6.6,0,0,0-.06-.27.76.76,0,0,0-.17-.23,1,1,0,0,0-.24-.15.81.81,0,0,0-.31-.05.77.77,0,0,0-.42.1.7.7,0,0,0-.28.26,1.14,1.14,0,0,0-.15.36,2,2,0,0,0,0,.41v.12a2,2,0,0,0,0,.42,1.14,1.14,0,0,0,.15.36.81.81,0,0,0,.28.27.87.87,0,0,0,.42.1A1,1,0,0,0,228.75,138.6Z"/><path class="cls-4" d="M232.42,135.86v2.7h1V139H230.8v-.47h1.08v-2.23H230.8v-.47Zm-.59-1a.17.17,0,0,1,.07-.1.15.15,0,0,1,.09-.06.5.5,0,0,1,.28,0,.18.18,0,0,1,.09.06.23.23,0,0,1,.07.1.32.32,0,0,1,0,.14.31.31,0,0,1-.09.22.4.4,0,0,1-.48,0,.3.3,0,0,1-.08-.22A.34.34,0,0,1,231.83,134.89Z"/><path class="cls-4" d="M236.34,138.87a1.11,1.11,0,0,1,0-.19l-.19.16a1.16,1.16,0,0,1-.22.13l-.26.08a.92.92,0,0,1-.29,0,1.34,1.34,0,0,1-.46-.08,1,1,0,0,1-.34-.2.77.77,0,0,1-.22-.29.91.91,0,0,1-.08-.37,1,1,0,0,1,.1-.46.94.94,0,0,1,.3-.33,1.48,1.48,0,0,1,.46-.19,2.77,2.77,0,0,1,.6-.06h.59v-.25a.71.71,0,0,0-.05-.26.75.75,0,0,0-.15-.2.9.9,0,0,0-.24-.12,1,1,0,0,0-.31,0,.85.85,0,0,0-.29,0,.51.51,0,0,0-.22.11.48.48,0,0,0-.18.35h-.55a1,1,0,0,1,.09-.34,1.18,1.18,0,0,1,.25-.3,1.39,1.39,0,0,1,.4-.22,1.69,1.69,0,0,1,.53-.08,1.63,1.63,0,0,1,.5.07,1.24,1.24,0,0,1,.4.19.88.88,0,0,1,.26.34,1,1,0,0,1,.1.46v1.48a2,2,0,0,0,0,.33,2,2,0,0,0,.08.31V139h-.56A.49.49,0,0,1,236.34,138.87Zm-.61-.3a1,1,0,0,0,.26-.1l.19-.16a1,1,0,0,0,.13-.18v-.64h-.51a2.38,2.38,0,0,0-.49,0,.72.72,0,0,0-.33.15.4.4,0,0,0-.13.16.54.54,0,0,0,0,.22.54.54,0,0,0,0,.22.52.52,0,0,0,.12.17.43.43,0,0,0,.2.11.78.78,0,0,0,.28.05A.93.93,0,0,0,235.73,138.57Z"/><path class="cls-4" d="M239.62,134.53v4h1V139H238v-.47h1.08V135H238v-.47Z"/><path class="cls-4" d="M245.11,135.86h.5l0,.34a1.85,1.85,0,0,1,.14-.14.66.66,0,0,1,.17-.12,1.08,1.08,0,0,1,.27-.1,1.15,1.15,0,0,1,.33,0,1.12,1.12,0,0,1,.53.12,1.16,1.16,0,0,1,.4.33,2,2,0,0,1,.24.51,2.71,2.71,0,0,1,.08.66v.06a2.47,2.47,0,0,1-.08.63,1.72,1.72,0,0,1-.24.51,1.14,1.14,0,0,1-.39.34,1.08,1.08,0,0,1-.54.13,1.66,1.66,0,0,1-.33,0,1.25,1.25,0,0,1-.29-.11.71.71,0,0,1-.14-.1.49.49,0,0,1-.13-.12v1.53h-.54ZM247.2,137a1.25,1.25,0,0,0-.16-.37.84.84,0,0,0-.27-.26.82.82,0,0,0-.4-.09.85.85,0,0,0-.23,0l-.19.08-.17.14-.13.18v1.53l.12.16a.57.57,0,0,0,.14.13,1,1,0,0,0,.21.1,1.09,1.09,0,0,0,.26,0,.8.8,0,0,0,.39-.09.75.75,0,0,0,.27-.26,1.25,1.25,0,0,0,.16-.37,2.12,2.12,0,0,0,.05-.44v-.06A2,2,0,0,0,247.2,137Z"/><path class="cls-4" d="M250.75,138.87a1.08,1.08,0,0,1,0-.19l-.18.16a1.26,1.26,0,0,1-.23.13,1.6,1.6,0,0,1-.26.08.92.92,0,0,1-.29,0,1.25,1.25,0,0,1-.45-.08,1,1,0,0,1-.35-.2.89.89,0,0,1-.22-.29.91.91,0,0,1-.08-.37,1,1,0,0,1,.11-.46.91.91,0,0,1,.29-.33,1.48,1.48,0,0,1,.46-.19,2.77,2.77,0,0,1,.6-.06h.59v-.25a.71.71,0,0,0-.05-.26.75.75,0,0,0-.15-.2.9.9,0,0,0-.24-.12,1,1,0,0,0-.31,0,.88.88,0,0,0-.29,0,.53.53,0,0,0-.21.11.36.36,0,0,0-.14.16.41.41,0,0,0,0,.19h-.54a.69.69,0,0,1,.09-.34.87.87,0,0,1,.25-.3,1.32,1.32,0,0,1,.39-.22,1.74,1.74,0,0,1,.53-.08,1.59,1.59,0,0,1,.5.07,1.14,1.14,0,0,1,.4.19,1,1,0,0,1,.27.34,1.11,1.11,0,0,1,.09.46v1.48a2,2,0,0,0,0,.33,2,2,0,0,0,.08.31V139h-.56A.5.5,0,0,1,250.75,138.87Zm-.61-.3a1.09,1.09,0,0,0,.25-.1,1,1,0,0,0,.19-.16.68.68,0,0,0,.13-.18v-.64h-.5a2.24,2.24,0,0,0-.49,0,.82.82,0,0,0-.34.15.4.4,0,0,0-.13.16.54.54,0,0,0-.05.22.78.78,0,0,0,0,.22.52.52,0,0,0,.12.17.49.49,0,0,0,.2.11.78.78,0,0,0,.28.05A1,1,0,0,0,250.14,138.57Z"/><path class="cls-4" d="M252.3,136.76a1.73,1.73,0,0,1,.25-.51,1.26,1.26,0,0,1,.4-.33,1.15,1.15,0,0,1,.53-.12,1.25,1.25,0,0,1,.35,0,1.28,1.28,0,0,1,.29.13.69.69,0,0,1,.13.11.46.46,0,0,1,.12.12l0-.34h.49V139a1.4,1.4,0,0,1-.1.56,1,1,0,0,1-.27.41,1.24,1.24,0,0,1-.43.26,1.53,1.53,0,0,1-.54.09l-.28,0a1.92,1.92,0,0,1-.32-.09,1.41,1.41,0,0,1-.32-.17,1.28,1.28,0,0,1-.26-.26l.29-.33a1.34,1.34,0,0,0,.2.21,1.2,1.2,0,0,0,.21.13,1.11,1.11,0,0,0,.22.07.82.82,0,0,0,.22,0,1,1,0,0,0,.35-.05.65.65,0,0,0,.26-.17.59.59,0,0,0,.17-.26,1,1,0,0,0,.06-.36v-.28l-.13.13-.15.11a1.08,1.08,0,0,1-.27.1,1.65,1.65,0,0,1-.32,0A1,1,0,0,1,253,139a1.06,1.06,0,0,1-.39-.34,1.53,1.53,0,0,1-.26-.51,2.47,2.47,0,0,1-.08-.63v-.06A2.3,2.3,0,0,1,252.3,136.76Zm.51,1.16a1,1,0,0,0,.15.36.77.77,0,0,0,.26.25.71.71,0,0,0,.39.1.66.66,0,0,0,.25,0,.67.67,0,0,0,.21-.09.75.75,0,0,0,.16-.15l.12-.19v-1.45a1.4,1.4,0,0,0-.12-.18.58.58,0,0,0-.17-.14l-.2-.1a.88.88,0,0,0-.24,0,.75.75,0,0,0-.39.09.84.84,0,0,0-.27.26,1,1,0,0,0-.15.37,1.56,1.56,0,0,0-.05.44v.06A1.61,1.61,0,0,0,252.81,137.92Z"/><path class="cls-4" d="M256.7,139a1.39,1.39,0,0,1-.48-.32,1.59,1.59,0,0,1-.31-.48,1.75,1.75,0,0,1-.11-.62v-.12a1.65,1.65,0,0,1,.13-.68,1.58,1.58,0,0,1,.32-.52,1.51,1.51,0,0,1,.47-.32,1.36,1.36,0,0,1,.53-.11,1.43,1.43,0,0,1,.6.12,1.14,1.14,0,0,1,.42.33,1.36,1.36,0,0,1,.26.49,2.39,2.39,0,0,1,.08.62v.24h-2.27v0a1.64,1.64,0,0,0,.1.41,1,1,0,0,0,.19.31,1,1,0,0,0,.31.22.94.94,0,0,0,.41.08,1.06,1.06,0,0,0,.51-.11,1.15,1.15,0,0,0,.38-.31l.33.25a1.45,1.45,0,0,1-.48.43,1.42,1.42,0,0,1-.77.19A1.56,1.56,0,0,1,256.7,139Zm.24-2.66a.77.77,0,0,0-.27.17.92.92,0,0,0-.19.28,1.27,1.27,0,0,0-.12.39h1.71v0a1,1,0,0,0-.06-.32,1.13,1.13,0,0,0-.15-.29.82.82,0,0,0-.25-.2.83.83,0,0,0-.36-.07A.78.78,0,0,0,256.94,136.31Z"/><path class="cls-4" d="M260.71,135.81a.49.49,0,0,1,.64,0,.4.4,0,0,1,.11.3.38.38,0,0,1-.11.29.49.49,0,0,1-.64,0,.43.43,0,0,1-.1-.29A.47.47,0,0,1,260.71,135.81Zm0,2.57a.49.49,0,0,1,.64,0,.4.4,0,0,1,.11.3.39.39,0,0,1-.11.29.52.52,0,0,1-.64,0,.43.43,0,0,1-.1-.29A.44.44,0,0,1,260.71,138.38Z"/><path class="cls-4" d="M114.38,150.55l.17-.14a1.08,1.08,0,0,1,.3-.16,1.49,1.49,0,0,1,.36-.05,1.35,1.35,0,0,1,.46.07.79.79,0,0,1,.34.23.89.89,0,0,1,.22.38,1.55,1.55,0,0,1,.08.55v2h-.54v-2a1.06,1.06,0,0,0,0-.33.68.68,0,0,0-.13-.24.51.51,0,0,0-.23-.15.8.8,0,0,0-.32-.05.86.86,0,0,0-.28,0,1.08,1.08,0,0,0-.24.12l-.16.13a1.24,1.24,0,0,0-.14.18v2.3h-.54v-4.5h.54v1.8Z"/><path class="cls-4" d="M118.58,150.26h1.2v.42h-1.2v1.72a.87.87,0,0,0,0,.3.46.46,0,0,0,.13.19.52.52,0,0,0,.19.11.85.85,0,0,0,.23,0h.18l.18,0,.17,0,.13,0,.07.39-.16.07-.21.05a1,1,0,0,1-.24,0l-.26,0a1.23,1.23,0,0,1-.39-.06.83.83,0,0,1-.32-.2.78.78,0,0,1-.21-.33,1.5,1.5,0,0,1-.08-.5v-1.72h-.83v-.42H118v-.77h.55Z"/><path class="cls-4" d="M122.18,150.26h1.2v.42h-1.2v1.72a.87.87,0,0,0,0,.3.57.57,0,0,0,.13.19.52.52,0,0,0,.19.11.85.85,0,0,0,.23,0H123l.19,0,.16,0,.13,0,.07.39-.16.07-.21.05a1,1,0,0,1-.24,0l-.26,0a1.23,1.23,0,0,1-.39-.06.83.83,0,0,1-.32-.2.78.78,0,0,1-.21-.33,1.5,1.5,0,0,1-.08-.5v-1.72h-.83v-.42h.83v-.77h.55Z"/><path class="cls-4" d="M124.49,150.26h.5l0,.34a1.85,1.85,0,0,1,.14-.14.66.66,0,0,1,.17-.12,1.08,1.08,0,0,1,.27-.1,1.15,1.15,0,0,1,.33,0,1.12,1.12,0,0,1,.53.12,1.16,1.16,0,0,1,.4.33,2,2,0,0,1,.24.51,2.71,2.71,0,0,1,.08.66v.06a2.53,2.53,0,0,1-.08.63,1.72,1.72,0,0,1-.24.51,1.14,1.14,0,0,1-.39.34,1.08,1.08,0,0,1-.54.13,1.66,1.66,0,0,1-.33,0,1.25,1.25,0,0,1-.29-.11.71.71,0,0,1-.14-.1.49.49,0,0,1-.13-.12v1.53h-.54Zm2.09,1.12a1.45,1.45,0,0,0-.16-.38.93.93,0,0,0-.27-.25.82.82,0,0,0-.4-.09.85.85,0,0,0-.23,0l-.19.08-.17.14-.13.18v1.53a1,1,0,0,0,.12.16.57.57,0,0,0,.14.13,1,1,0,0,0,.21.1,1.09,1.09,0,0,0,.26,0,.8.8,0,0,0,.39-.09.75.75,0,0,0,.27-.26,1.38,1.38,0,0,0,.16-.37,2.12,2.12,0,0,0,0-.44v-.06A2,2,0,0,0,126.58,151.38Z"/><path class="cls-4" d="M130.16,152.41a.29.29,0,0,0-.13-.14,1.33,1.33,0,0,0-.24-.12,3.72,3.72,0,0,0-.37-.1,3.17,3.17,0,0,1-.49-.13,1.77,1.77,0,0,1-.39-.19.88.88,0,0,1-.25-.26.76.76,0,0,1,0-.7.89.89,0,0,1,.25-.3,1.43,1.43,0,0,1,.39-.2,1.59,1.59,0,0,1,.5-.07,1.48,1.48,0,0,1,.53.08,1.17,1.17,0,0,1,.4.21.93.93,0,0,1,.25.31.86.86,0,0,1,.09.39h-.54a.46.46,0,0,0,0-.2.84.84,0,0,0-.15-.18.71.71,0,0,0-.23-.12.94.94,0,0,0-.3-.05,1.36,1.36,0,0,0-.3,0,.65.65,0,0,0-.22.11.57.57,0,0,0-.13.14.39.39,0,0,0,0,.18.47.47,0,0,0,0,.17.4.4,0,0,0,.13.13.71.71,0,0,0,.23.1,2,2,0,0,0,.36.1,3.39,3.39,0,0,1,.53.14,1.77,1.77,0,0,1,.39.19,1,1,0,0,1,.24.26.67.67,0,0,1,.08.35.79.79,0,0,1-.09.38.86.86,0,0,1-.27.3,1.48,1.48,0,0,1-.4.19,2.11,2.11,0,0,1-.52.07,1.72,1.72,0,0,1-.58-.09,1.3,1.3,0,0,1-.42-.23.91.91,0,0,1-.36-.72h.54a.58.58,0,0,0,.09.28.69.69,0,0,0,.19.19,1.17,1.17,0,0,0,.26.1,1.33,1.33,0,0,0,.28,0,1.46,1.46,0,0,0,.38-.05.76.76,0,0,0,.25-.15.36.36,0,0,0,.08-.12.32.32,0,0,0,0-.14A.34.34,0,0,0,130.16,152.41Z"/><path class="cls-4" d="M132.89,150.21a.49.49,0,0,1,.64,0,.44.44,0,0,1,.11.3.42.42,0,0,1-.11.29.49.49,0,0,1-.64,0,.43.43,0,0,1-.1-.29A.45.45,0,0,1,132.89,150.21Zm0,2.57a.49.49,0,0,1,.64,0,.44.44,0,0,1,.11.3.44.44,0,0,1-.11.29.52.52,0,0,1-.64,0,.43.43,0,0,1-.1-.29A.44.44,0,0,1,132.89,152.78Z"/><path class="cls-4" d="M135.52,153.79l1.79-4.63h.48L136,153.79Z"/><path class="cls-4" d="M139.13,153.79l1.78-4.63h.48l-1.78,4.63Z"/><path class="cls-4" d="M142.13,150.26h.48l.37,2,.06.45.08-.45.51-2H144l.5,2,.09.5.08-.5.35-2h.48l-.68,3.17h-.42l-.5-1.94-.08-.5-.08.5-.49,1.94h-.43Z"/><path class="cls-4" d="M145.73,150.26h.48l.37,2,.06.45.08-.45.51-2h.35l.5,2,.09.5.08-.5.35-2h.48l-.68,3.17H148l-.5-1.94-.08-.5-.08.5-.49,1.94h-.43Z"/><path class="cls-4" d="M149.33,150.26h.48l.37,2,.06.45.08-.45.51-2h.35l.5,2,.09.5.08-.5.35-2h.48l-.68,3.17h-.42l-.5-1.94L151,151l-.08.5-.49,1.94H150Z"/><path class="cls-4" d="M154.35,152.78a.39.39,0,0,1,.32-.12.42.42,0,0,1,.32.12.44.44,0,0,1,.11.3.44.44,0,0,1-.11.29.46.46,0,0,1-.32.11.44.44,0,0,1-.32-.11.44.44,0,0,1-.11-.29A.44.44,0,0,1,154.35,152.78Z"/><path class="cls-4" d="M159,153a1.18,1.18,0,0,1-.4.37,1.21,1.21,0,0,1-.55.13,1.33,1.33,0,0,1-.45-.08.81.81,0,0,1-.34-.24,1.05,1.05,0,0,1-.22-.42,1.84,1.84,0,0,1-.08-.61v-1.88h.54v1.89a1.8,1.8,0,0,0,0,.43.7.7,0,0,0,.12.26.55.55,0,0,0,.2.15.79.79,0,0,0,.28,0,1,1,0,0,0,.32,0,.83.83,0,0,0,.25-.12.75.75,0,0,0,.16-.15,1.18,1.18,0,0,0,.11-.19v-2.27h.54v3.17H159Z"/><path class="cls-4" d="M160.5,150.26H161l0,.47a1.46,1.46,0,0,1,.16-.19.86.86,0,0,1,.18-.14,1.4,1.4,0,0,1,.3-.15,1.4,1.4,0,0,1,.81,0,.87.87,0,0,1,.34.22,1,1,0,0,1,.22.38,1.73,1.73,0,0,1,.08.55v2h-.54v-2a1.25,1.25,0,0,0,0-.36.57.57,0,0,0-.14-.24.54.54,0,0,0-.22-.13,1,1,0,0,0-.31,0,.86.86,0,0,0-.28,0,1,1,0,0,0-.23.12.8.8,0,0,0-.17.15,1.18,1.18,0,0,0-.13.18v2.28h-.54Z"/><path class="cls-4" d="M165.15,152.78a.49.49,0,0,1,.64,0,.44.44,0,0,1,.11.3.44.44,0,0,1-.11.29.46.46,0,0,1-.32.11.44.44,0,0,1-.32-.11.44.44,0,0,1-.11-.29A.44.44,0,0,1,165.15,152.78Z"/><path class="cls-4" d="M167.65,151.18a1.42,1.42,0,0,1,.29-.51,1.3,1.3,0,0,1,.45-.35,1.43,1.43,0,0,1,.6-.12,1.46,1.46,0,0,1,.6.12,1.44,1.44,0,0,1,.46.35,1.4,1.4,0,0,1,.28.51,1.81,1.81,0,0,1,.1.63v.07a1.81,1.81,0,0,1-.1.63,1.4,1.4,0,0,1-.28.51,1.28,1.28,0,0,1-.46.34,1.26,1.26,0,0,1-.6.13,1.32,1.32,0,0,1-.6-.13,1.17,1.17,0,0,1-.45-.34,1.42,1.42,0,0,1-.29-.51,1.81,1.81,0,0,1-.1-.63v-.07A1.81,1.81,0,0,1,167.65,151.18Zm.5,1.14a.94.94,0,0,0,.17.38.68.68,0,0,0,.28.25.71.71,0,0,0,.39.1.77.77,0,0,0,.4-.1.83.83,0,0,0,.28-.25,1.09,1.09,0,0,0,.16-.38,1.61,1.61,0,0,0,.06-.44v-.07a1.61,1.61,0,0,0-.06-.44.9.9,0,0,0-.17-.37.77.77,0,0,0-.28-.26.81.81,0,0,0-.78,0,.7.7,0,0,0-.28.26.9.9,0,0,0-.17.37,1.61,1.61,0,0,0-.06.44v.07A1.61,1.61,0,0,0,168.15,152.32Z"/><path class="cls-4" d="M173.69,150.22a.7.7,0,0,1,.25.06l-.08.53-.3-.06h-.29a1.07,1.07,0,0,0-.37,0,.92.92,0,0,0-.28.14.7.7,0,0,0-.18.2,1.3,1.3,0,0,0-.14.26v2h-.54v-3.17h.51l0,.42v.08a1.5,1.5,0,0,1,.46-.41,1.26,1.26,0,0,1,.62-.15Z"/><path class="cls-4" d="M174.89,151.16a1.73,1.73,0,0,1,.25-.51,1.16,1.16,0,0,1,.4-.33,1.12,1.12,0,0,1,.53-.12,1.29,1.29,0,0,1,.35,0,1.51,1.51,0,0,1,.29.13l.13.1.12.13,0-.34h.49v3.1a1.64,1.64,0,0,1-.1.56,1.33,1.33,0,0,1-.27.41,1.24,1.24,0,0,1-.43.26,1.53,1.53,0,0,1-.54.09l-.29,0a1.81,1.81,0,0,1-.31-.09,2,2,0,0,1-.32-.17,1.07,1.07,0,0,1-.26-.26l.28-.33.21.21a1.2,1.2,0,0,0,.21.13.94.94,0,0,0,.22.07.78.78,0,0,0,.22,0,1.21,1.21,0,0,0,.34,0,.62.62,0,0,0,.27-.17.69.69,0,0,0,.17-.26,1,1,0,0,0,.06-.36v-.28l-.13.13-.15.11a1.25,1.25,0,0,1-.27.1,1.66,1.66,0,0,1-.33,0,1,1,0,0,1-.52-.13,1.09,1.09,0,0,1-.4-.34,1.52,1.52,0,0,1-.25-.51,2.13,2.13,0,0,1-.09-.63v-.06A2.29,2.29,0,0,1,174.89,151.16Zm.5,1.16a1.19,1.19,0,0,0,.16.36.69.69,0,0,0,.26.25.71.71,0,0,0,.39.1.66.66,0,0,0,.25,0,.61.61,0,0,0,.2-.09.57.57,0,0,0,.16-.15,1.27,1.27,0,0,0,.13-.19v-1.45a.83.83,0,0,0-.13-.18.54.54,0,0,0-.16-.14l-.2-.1a1,1,0,0,0-.25,0,.8.8,0,0,0-.39.09.89.89,0,0,0-.26.25,1.45,1.45,0,0,0-.16.38,2.06,2.06,0,0,0,0,.44v.06A2.12,2.12,0,0,0,175.39,152.32Z"/><path class="cls-4" d="M178.73,153.79l1.78-4.63H181l-1.78,4.63Z"/><path class="cls-4" d="M184.17,152.41a.34.34,0,0,0-.13-.14,1.33,1.33,0,0,0-.24-.12,3.72,3.72,0,0,0-.37-.1,3.31,3.31,0,0,1-.5-.13,1.93,1.93,0,0,1-.38-.19.77.77,0,0,1-.25-.26.63.63,0,0,1-.08-.34.74.74,0,0,1,.09-.36.89.89,0,0,1,.25-.3,1.43,1.43,0,0,1,.39-.2,1.59,1.59,0,0,1,.5-.07,1.48,1.48,0,0,1,.53.08,1.17,1.17,0,0,1,.4.21.93.93,0,0,1,.25.31.86.86,0,0,1,.09.39h-.54a.46.46,0,0,0-.05-.2.84.84,0,0,0-.15-.18.71.71,0,0,0-.23-.12.94.94,0,0,0-.3-.05,1.28,1.28,0,0,0-.3,0,.65.65,0,0,0-.22.11.43.43,0,0,0-.13.14.39.39,0,0,0,0,.18.47.47,0,0,0,0,.17.4.4,0,0,0,.13.13.71.71,0,0,0,.23.1,1.79,1.79,0,0,0,.36.1,3.39,3.39,0,0,1,.53.14,1.77,1.77,0,0,1,.39.19,1,1,0,0,1,.24.26.67.67,0,0,1,.08.35.79.79,0,0,1-.09.38.86.86,0,0,1-.27.3,1.42,1.42,0,0,1-.41.19,2,2,0,0,1-.51.07,1.72,1.72,0,0,1-.58-.09,1.2,1.2,0,0,1-.42-.23.91.91,0,0,1-.36-.72h.54a.6.6,0,0,0,.28.47,1,1,0,0,0,.26.1,1.27,1.27,0,0,0,.28,0,1.32,1.32,0,0,0,.37-.05.71.71,0,0,0,.26-.15.36.36,0,0,0,.08-.12.32.32,0,0,0,0-.14A.34.34,0,0,0,184.17,152.41Z"/><path class="cls-4" d="M187.76,153a1.15,1.15,0,0,1-.39.37,1.26,1.26,0,0,1-1,0,.85.85,0,0,1-.35-.24,1.19,1.19,0,0,1-.22-.42,2.15,2.15,0,0,1-.08-.61v-1.88h.54v1.89a1.75,1.75,0,0,0,.05.43.49.49,0,0,0,.12.26.43.43,0,0,0,.2.15.77.77,0,0,0,.27,0,1.15,1.15,0,0,0,.33,0,1,1,0,0,0,.25-.12.54.54,0,0,0,.15-.15.72.72,0,0,0,.11-.19v-2.27h.55v3.17h-.5Z"/><path class="cls-4" d="M191.37,152.41a.29.29,0,0,0-.13-.14,1.33,1.33,0,0,0-.24-.12,3.72,3.72,0,0,0-.37-.1,3.17,3.17,0,0,1-.49-.13,1.77,1.77,0,0,1-.39-.19.88.88,0,0,1-.25-.26.76.76,0,0,1,0-.7.89.89,0,0,1,.25-.3,1.43,1.43,0,0,1,.39-.2,1.59,1.59,0,0,1,.5-.07,1.48,1.48,0,0,1,.53.08,1.17,1.17,0,0,1,.4.21.93.93,0,0,1,.25.31.86.86,0,0,1,.09.39h-.54a.46.46,0,0,0,0-.2.84.84,0,0,0-.15-.18.71.71,0,0,0-.23-.12.94.94,0,0,0-.3-.05,1.36,1.36,0,0,0-.3,0,.65.65,0,0,0-.22.11.57.57,0,0,0-.13.14.39.39,0,0,0,0,.18.47.47,0,0,0,0,.17.4.4,0,0,0,.13.13.71.71,0,0,0,.23.1,2,2,0,0,0,.36.1,3.39,3.39,0,0,1,.53.14,1.77,1.77,0,0,1,.39.19,1,1,0,0,1,.24.26.67.67,0,0,1,.08.35.79.79,0,0,1-.09.38.86.86,0,0,1-.27.3,1.48,1.48,0,0,1-.4.19,2.18,2.18,0,0,1-.52.07,1.72,1.72,0,0,1-.58-.09,1.3,1.3,0,0,1-.42-.23.91.91,0,0,1-.36-.72h.54a.58.58,0,0,0,.09.28.69.69,0,0,0,.19.19,1.17,1.17,0,0,0,.26.1,1.33,1.33,0,0,0,.28,0,1.46,1.46,0,0,0,.38-.05.76.76,0,0,0,.25-.15.36.36,0,0,0,.08-.12.32.32,0,0,0,0-.14A.34.34,0,0,0,191.37,152.41Z"/><path class="cls-4" d="M194.19,150.26h1.21v.42h-1.21v1.72a.67.67,0,0,0,.05.3.44.44,0,0,0,.12.19.52.52,0,0,0,.19.11.85.85,0,0,0,.23,0H195l.19,0,.16,0,.13,0,.08.39-.17.07-.21.05a1,1,0,0,1-.24,0l-.25,0a1.29,1.29,0,0,1-.4-.06.83.83,0,0,1-.32-.2.78.78,0,0,1-.21-.33,1.5,1.5,0,0,1-.08-.5v-1.72h-.83v-.42h.83v-.77h.55Z"/><path class="cls-4" d="M198.54,153.27a1.08,1.08,0,0,1,0-.19.93.93,0,0,1-.18.16l-.22.13-.26.08a1,1,0,0,1-.3,0,1.25,1.25,0,0,1-.45-.08,1,1,0,0,1-.35-.2.89.89,0,0,1-.22-.29,1,1,0,0,1-.08-.37,1,1,0,0,1,.11-.46,1,1,0,0,1,.29-.33,1.48,1.48,0,0,1,.46-.19,2.77,2.77,0,0,1,.6-.06h.59v-.25a.71.71,0,0,0-.05-.26.75.75,0,0,0-.15-.2.77.77,0,0,0-.24-.12,1,1,0,0,0-.31,0,.88.88,0,0,0-.29,0,.53.53,0,0,0-.21.11.36.36,0,0,0-.14.16.41.41,0,0,0-.05.19h-.54a.69.69,0,0,1,.09-.34.79.79,0,0,1,.25-.3,1.47,1.47,0,0,1,.39-.22,1.74,1.74,0,0,1,.53-.08,1.59,1.59,0,0,1,.5.07,1.14,1.14,0,0,1,.4.19,1,1,0,0,1,.27.34,1.08,1.08,0,0,1,.09.46v1.48a2,2,0,0,0,0,.33,2,2,0,0,0,.08.31v.05h-.56A.5.5,0,0,1,198.54,153.27Zm-.61-.3a1.09,1.09,0,0,0,.25-.1,1,1,0,0,0,.19-.16.68.68,0,0,0,.13-.18v-.64H198a2.31,2.31,0,0,0-.49.05.82.82,0,0,0-.34.15.51.51,0,0,0-.13.16.62.62,0,0,0,0,.44.39.39,0,0,0,.11.17.49.49,0,0,0,.2.11.82.82,0,0,0,.28,0A1,1,0,0,0,197.93,153Z"/><path class="cls-4" d="M201.81,150.26V153h1v.47h-2.66V153h1.08v-2.23h-1.08v-.47Zm-.59-1a.36.36,0,0,1,.07-.1.21.21,0,0,1,.1-.06.27.27,0,0,1,.13,0,.3.3,0,0,1,.14,0,.21.21,0,0,1,.1.06.36.36,0,0,1,.07.1.59.59,0,0,1,0,.14.35.35,0,0,1-.08.22.37.37,0,0,1-.25.08.28.28,0,0,1-.32-.3A.59.59,0,0,1,201.22,149.29Z"/><path class="cls-4" d="M203.71,150.26h.48l0,.47a1.46,1.46,0,0,1,.16-.19l.17-.14a1.77,1.77,0,0,1,.31-.15,1.34,1.34,0,0,1,.35-.05,1.25,1.25,0,0,1,.45.07.91.91,0,0,1,.35.22,1.09,1.09,0,0,1,.22.38,1.73,1.73,0,0,1,.08.55v2h-.54v-2a1.25,1.25,0,0,0-.05-.36.57.57,0,0,0-.14-.24.58.58,0,0,0-.23-.13,1,1,0,0,0-.3,0,.86.86,0,0,0-.28,0,.9.9,0,0,0-.24.12.75.75,0,0,0-.16.15,1.18,1.18,0,0,0-.13.18v2.28h-.54Z"/><path class="cls-4" d="M209.34,153.27l0-.19a.93.93,0,0,1-.18.16l-.22.13-.26.08a1,1,0,0,1-.3,0,1.29,1.29,0,0,1-.45-.08,1,1,0,0,1-.35-.2.89.89,0,0,1-.22-.29.94.94,0,0,1-.07-.37,1,1,0,0,1,.1-.46,1,1,0,0,1,.29-.33,1.48,1.48,0,0,1,.46-.19,2.77,2.77,0,0,1,.6-.06h.59v-.25a.55.55,0,0,0-.05-.26.48.48,0,0,0-.15-.2.67.67,0,0,0-.24-.12,1,1,0,0,0-.31,0,.82.82,0,0,0-.28,0,.51.51,0,0,0-.22.11.36.36,0,0,0-.14.16.41.41,0,0,0,0,.19h-.54a.69.69,0,0,1,.09-.34.89.89,0,0,1,.25-.3,1.47,1.47,0,0,1,.39-.22,1.78,1.78,0,0,1,.53-.08,1.59,1.59,0,0,1,.5.07,1.14,1.14,0,0,1,.4.19.91.91,0,0,1,.27.34,1.08,1.08,0,0,1,.1.46v1.48a1.94,1.94,0,0,0,0,.33,1.26,1.26,0,0,0,.09.31v.05h-.57A.5.5,0,0,1,209.34,153.27Zm-.61-.3a1.09,1.09,0,0,0,.25-.1.77.77,0,0,0,.19-.16.68.68,0,0,0,.13-.18v-.64h-.5a2.31,2.31,0,0,0-.49.05.72.72,0,0,0-.33.15.43.43,0,0,0-.14.16.62.62,0,0,0,0,.44.33.33,0,0,0,.12.17.4.4,0,0,0,.19.11.82.82,0,0,0,.28,0A1,1,0,0,0,208.73,153Z"/><path class="cls-4" d="M213.56,152.28a3.21,3.21,0,0,1-.08.36,2.06,2.06,0,0,1-.21.39,1.22,1.22,0,0,1-.31.29,1.18,1.18,0,0,1-.28.12,1.14,1.14,0,0,1-.33.05,1.52,1.52,0,0,1-.38-.05,1.05,1.05,0,0,1-.3-.15l-.12-.1-.11-.12,0,.36h-.5v-4.5h.54v1.67l.15-.16.18-.11a.74.74,0,0,1,.26-.1,1.39,1.39,0,0,1,.3,0,1.52,1.52,0,0,1,.38.05,1.14,1.14,0,0,1,.31.16,1,1,0,0,1,.23.23,2.75,2.75,0,0,1,.17.29,1.39,1.39,0,0,1,.12.41,2.44,2.44,0,0,1,0,.48v.06A2.58,2.58,0,0,1,213.56,152.28Zm-.53-.75a1.86,1.86,0,0,0-.05-.27,1.3,1.3,0,0,0-.14-.29.8.8,0,0,0-.21-.2l-.19-.08a.85.85,0,0,0-.23,0,.71.71,0,0,0-.26,0,.51.51,0,0,0-.21.1.8.8,0,0,0-.17.15l-.12.2v1.38a1.37,1.37,0,0,0,.13.2,1.21,1.21,0,0,0,.16.16,1,1,0,0,0,.21.1,1.09,1.09,0,0,0,.26,0,.69.69,0,0,0,.25,0,.54.54,0,0,0,.2-.1.61.61,0,0,0,.19-.2,1,1,0,0,0,.13-.28,2,2,0,0,0,.06-.26,2.44,2.44,0,0,0,0-.27v-.06A1.37,1.37,0,0,0,213,151.53Z"/><path class="cls-4" d="M216.21,148.93v4h1v.47h-2.66V153h1.08V149.4h-1.08v-.47Z"/><path class="cls-4" d="M218.9,153.37a1.23,1.23,0,0,1-.48-.32,1.28,1.28,0,0,1-.31-.48A1.59,1.59,0,0,1,218,152v-.12a1.92,1.92,0,0,1,.12-.69,1.5,1.5,0,0,1,.33-.51,1.23,1.23,0,0,1,.46-.32,1.44,1.44,0,0,1,1.13,0,1.38,1.38,0,0,1,.43.32,1.67,1.67,0,0,1,.25.5,2.37,2.37,0,0,1,.08.61V152h-2.26v0a1.3,1.3,0,0,0,.09.41,1,1,0,0,0,.2.31.95.95,0,0,0,.71.3,1.27,1.27,0,0,0,.52-.11,1.12,1.12,0,0,0,.37-.31l.33.25a1.32,1.32,0,0,1-.47.43,1.55,1.55,0,0,1-.78.19A1.51,1.51,0,0,1,218.9,153.37Zm.23-2.66a.65.65,0,0,0-.26.17,1,1,0,0,0-.2.28,1.25,1.25,0,0,0-.11.39h1.7v0a1,1,0,0,0-.06-.32.73.73,0,0,0-.15-.29.82.82,0,0,0-.25-.2.8.8,0,0,0-.36-.08A.82.82,0,0,0,219.13,150.71Z"/><path class="cls-4" d="M221.7,151.16a1.73,1.73,0,0,1,.25-.51,1.26,1.26,0,0,1,.4-.33,1.15,1.15,0,0,1,.53-.12,1.22,1.22,0,0,1,.49.09,1.13,1.13,0,0,1,.37.28v-1.64h.54v4.5h-.5l0-.34a1,1,0,0,1-.38.3,1.29,1.29,0,0,1-.51.1,1,1,0,0,1-.52-.13,1.09,1.09,0,0,1-.4-.34,1.52,1.52,0,0,1-.25-.51,2.13,2.13,0,0,1-.09-.63v-.06A2.29,2.29,0,0,1,221.7,151.16Zm.5,1.16a1,1,0,0,0,.15.36.72.72,0,0,0,.27.25.69.69,0,0,0,.39.1.73.73,0,0,0,.45-.13.83.83,0,0,0,.28-.33V151.1a1,1,0,0,0-.28-.32.79.79,0,0,0-.45-.12.8.8,0,0,0-.39.09.93.93,0,0,0-.27.25,1.16,1.16,0,0,0-.15.38,2,2,0,0,0,0,.44v.06A2.12,2.12,0,0,0,222.2,152.32Z"/><path class="cls-4" d="M226.1,153.37a1.23,1.23,0,0,1-.48-.32,1.42,1.42,0,0,1-.31-.48,1.59,1.59,0,0,1-.11-.62v-.12a1.92,1.92,0,0,1,.12-.69,1.5,1.5,0,0,1,.33-.51,1.32,1.32,0,0,1,.46-.32,1.44,1.44,0,0,1,1.13,0,1.38,1.38,0,0,1,.43.32,1.67,1.67,0,0,1,.25.5,2,2,0,0,1,.08.61V152h-2.26v0a1.3,1.3,0,0,0,.09.41,1,1,0,0,0,.2.31.95.95,0,0,0,.71.3,1.24,1.24,0,0,0,.52-.11,1.12,1.12,0,0,0,.37-.31l.33.25a1.32,1.32,0,0,1-.47.43,1.55,1.55,0,0,1-.78.19A1.51,1.51,0,0,1,226.1,153.37Zm.23-2.66a.73.73,0,0,0-.26.17,1,1,0,0,0-.2.28,1.25,1.25,0,0,0-.11.39h1.7v0a1.25,1.25,0,0,0-.05-.32.9.9,0,0,0-.16-.29.82.82,0,0,0-.25-.2.8.8,0,0,0-.36-.08A.82.82,0,0,0,226.33,150.71Z"/><path class="cls-4" d="M228.69,150.26h.56l.9,2.39,0,.19.06-.19.88-2.39h.56l-1.29,3.17H230Z"/><path class="cls-4" d="M233.3,153.37a1.23,1.23,0,0,1-.48-.32,1.42,1.42,0,0,1-.31-.48,1.8,1.8,0,0,1-.11-.62v-.12a1.92,1.92,0,0,1,.12-.69,1.5,1.5,0,0,1,.33-.51,1.32,1.32,0,0,1,.46-.32,1.44,1.44,0,0,1,1.13,0,1.38,1.38,0,0,1,.43.32,1.67,1.67,0,0,1,.25.5,2,2,0,0,1,.08.61V152h-2.26v0a1.3,1.3,0,0,0,.09.41,1.27,1.27,0,0,0,.2.31,1,1,0,0,0,.31.22.9.9,0,0,0,.4.08,1.21,1.21,0,0,0,.52-.11,1.12,1.12,0,0,0,.37-.31l.33.25a1.32,1.32,0,0,1-.47.43,1.55,1.55,0,0,1-.78.19A1.51,1.51,0,0,1,233.3,153.37Zm.23-2.66a.73.73,0,0,0-.26.17,1,1,0,0,0-.2.28,1.6,1.6,0,0,0-.11.39h1.7v0a1.25,1.25,0,0,0,0-.32.9.9,0,0,0-.16-.29.71.71,0,0,0-.25-.2.8.8,0,0,0-.36-.08A.82.82,0,0,0,233.53,150.71Z"/><path class="cls-4" d="M237.82,148.93v4h1v.47H236.2V153h1.08V149.4H236.2v-.47Z"/><path class="cls-4" d="M239.66,151.18a1.42,1.42,0,0,1,.29-.51,1.3,1.3,0,0,1,.45-.35,1.46,1.46,0,0,1,.6-.12,1.43,1.43,0,0,1,.6.12,1.34,1.34,0,0,1,.46.35,1.4,1.4,0,0,1,.28.51,1.81,1.81,0,0,1,.1.63v.07a1.81,1.81,0,0,1-.1.63,1.4,1.4,0,0,1-.28.51,1.25,1.25,0,0,1-.45.34,1.32,1.32,0,0,1-.6.13,1.33,1.33,0,0,1-.61-.13A1.17,1.17,0,0,1,240,153a1.42,1.42,0,0,1-.29-.51,1.81,1.81,0,0,1-.1-.63v-.07A1.81,1.81,0,0,1,239.66,151.18Zm.5,1.14a1.1,1.1,0,0,0,.17.38.75.75,0,0,0,.28.25.72.72,0,0,0,.4.1.76.76,0,0,0,.39-.1.83.83,0,0,0,.28-.25,1.33,1.33,0,0,0,.17-.38,2.12,2.12,0,0,0,.05-.44v-.07a1.61,1.61,0,0,0-.06-.44,1,1,0,0,0-.16-.37.82.82,0,0,0-1.07-.26.77.77,0,0,0-.28.26,1.05,1.05,0,0,0-.17.37,1.61,1.61,0,0,0-.06.44v.07A1.61,1.61,0,0,0,240.16,152.32Z"/><path class="cls-4" d="M243.31,150.26h.5l0,.34a1.85,1.85,0,0,1,.14-.14.66.66,0,0,1,.17-.12,1.08,1.08,0,0,1,.27-.1,1.28,1.28,0,0,1,.86.08,1.16,1.16,0,0,1,.4.33,2,2,0,0,1,.24.51,2.71,2.71,0,0,1,.08.66v.06a2.53,2.53,0,0,1-.08.63,1.72,1.72,0,0,1-.24.51,1.09,1.09,0,0,1-.4.34,1,1,0,0,1-.53.13,1.66,1.66,0,0,1-.33,0,1.25,1.25,0,0,1-.29-.11.71.71,0,0,1-.14-.1.49.49,0,0,1-.13-.12v1.53h-.54Zm2.09,1.12a1.45,1.45,0,0,0-.16-.38.93.93,0,0,0-.27-.25.82.82,0,0,0-.4-.09.85.85,0,0,0-.23,0l-.19.08-.17.14-.13.18v1.53a1,1,0,0,0,.12.16.57.57,0,0,0,.14.13,1,1,0,0,0,.21.1,1.09,1.09,0,0,0,.26,0A.8.8,0,0,0,245,153a.75.75,0,0,0,.27-.26,1.38,1.38,0,0,0,.16-.37,2.12,2.12,0,0,0,0-.44v-.06A2,2,0,0,0,245.4,151.38Z"/><path class="cls-4" d="M247.18,150.56a.69.69,0,0,1,.25-.26.67.67,0,0,1,.38-.1.8.8,0,0,1,.23,0,.58.58,0,0,1,.18.08l.1.1a.54.54,0,0,1,.07.13.64.64,0,0,1,.1-.13l.12-.1.18-.08a.85.85,0,0,1,.23,0,.71.71,0,0,1,.29.05.55.55,0,0,1,.22.14.72.72,0,0,1,.16.27,1.62,1.62,0,0,1,.05.4v2.37h-.52v-2.38a.47.47,0,0,0,0-.17.54.54,0,0,0-.07-.13.41.41,0,0,0-.11-.07l-.16,0a.43.43,0,0,0-.17,0,.24.24,0,0,0-.12.07.36.36,0,0,0-.07.1.57.57,0,0,0,0,.14v2.43H248v-2.38a.88.88,0,0,0,0-.17.4.4,0,0,0-.07-.13.41.41,0,0,0-.11-.07l-.16,0-.16,0-.13.06-.06.08a.19.19,0,0,0-.05.09v2.52h-.51v-3.17h.48Z"/><path class="cls-4" d="M251.3,153.37a1.31,1.31,0,0,1-.48-.32,1.59,1.59,0,0,1-.31-.48,1.8,1.8,0,0,1-.11-.62v-.12a1.92,1.92,0,0,1,.12-.69,1.87,1.87,0,0,1,.33-.51,1.42,1.42,0,0,1,.46-.32,1.45,1.45,0,0,1,.54-.11,1.38,1.38,0,0,1,.59.12,1.27,1.27,0,0,1,.43.32,1.47,1.47,0,0,1,.25.5,2,2,0,0,1,.09.61V152h-2.27v0a2.26,2.26,0,0,0,.09.41,1.27,1.27,0,0,0,.2.31,1,1,0,0,0,.31.22.9.9,0,0,0,.4.08,1.21,1.21,0,0,0,.52-.11,1.15,1.15,0,0,0,.38-.31l.33.25a1.45,1.45,0,0,1-.48.43,1.54,1.54,0,0,1-.77.19A1.56,1.56,0,0,1,251.3,153.37Zm.23-2.66a.83.83,0,0,0-.26.17,1.18,1.18,0,0,0-.2.28,1.6,1.6,0,0,0-.11.39h1.71v0a1,1,0,0,0-.06-.32.9.9,0,0,0-.16-.29.71.71,0,0,0-.25-.2.78.78,0,0,0-.35-.08A.88.88,0,0,0,251.53,150.71Z"/><path class="cls-4" d="M254.12,150.26h.48l0,.47.15-.19.18-.14a1.48,1.48,0,0,1,.31-.15,1.29,1.29,0,0,1,.35-.05,1.33,1.33,0,0,1,.45.07.91.91,0,0,1,.35.22,1.09,1.09,0,0,1,.22.38,1.73,1.73,0,0,1,.08.55v2h-.55v-2a1.28,1.28,0,0,0,0-.36.57.57,0,0,0-.14-.24.58.58,0,0,0-.23-.13,1,1,0,0,0-.3,0,.82.82,0,0,0-.28,0,.9.9,0,0,0-.24.12,1.15,1.15,0,0,0-.29.33v2.28h-.54Z"/><path class="cls-4" d="M259,150.26h1.21v.42H259v1.72a.85.85,0,0,0,.05.3.38.38,0,0,0,.13.19.42.42,0,0,0,.18.11.91.91,0,0,0,.23,0h.18l.19,0,.16,0,.13,0,.08.39-.17.07-.21.05a.93.93,0,0,1-.24,0l-.25,0a1.29,1.29,0,0,1-.4-.06.83.83,0,0,1-.32-.2.78.78,0,0,1-.21-.33,1.5,1.5,0,0,1-.08-.5v-1.72h-.83v-.42h.83v-.77H259Z"/><path class="cls-4" d="M261.55,153.79l1.78-4.63h.48L262,153.79Z"/><path class="cls-4" d="M264.9,151.16a2,2,0,0,1,.25-.51,1.26,1.26,0,0,1,.4-.33,1.18,1.18,0,0,1,.53-.12,1.25,1.25,0,0,1,.35,0,1.11,1.11,0,0,1,.29.13l.13.1a.71.71,0,0,1,.12.13l0-.34h.49v3.1a1.43,1.43,0,0,1-.1.56,1,1,0,0,1-.27.41,1.29,1.29,0,0,1-.42.26,1.63,1.63,0,0,1-.55.09l-.28,0a1.92,1.92,0,0,1-.32-.09,1.87,1.87,0,0,1-.31-.17.92.92,0,0,1-.26-.26l.28-.33a1.34,1.34,0,0,0,.2.21,1,1,0,0,0,.22.13,1,1,0,0,0,.43.09,1.29,1.29,0,0,0,.35,0,.77.77,0,0,0,.27-.17.68.68,0,0,0,.16-.26,1,1,0,0,0,.06-.36v-.28a.8.8,0,0,1-.13.13.83.83,0,0,1-.15.11,1.08,1.08,0,0,1-.27.1,1.65,1.65,0,0,1-.32,0,1,1,0,0,1-.53-.13,1.14,1.14,0,0,1-.39-.34,1.35,1.35,0,0,1-.25-.51,2.13,2.13,0,0,1-.09-.63v-.06A2.71,2.71,0,0,1,264.9,151.16Zm.51,1.16a1,1,0,0,0,.15.36.72.72,0,0,0,.27.25.65.65,0,0,0,.38.1.71.71,0,0,0,.26,0,.72.72,0,0,0,.2-.09.75.75,0,0,0,.16-.15,1.22,1.22,0,0,0,.12-.19v-1.45a.81.81,0,0,0-.12-.18.7.7,0,0,0-.16-.14,1,1,0,0,0-.21-.1.88.88,0,0,0-.24,0,.8.8,0,0,0-.39.09.93.93,0,0,0-.27.25,1.16,1.16,0,0,0-.15.38,2,2,0,0,0-.05.44v.06A2.12,2.12,0,0,0,265.41,152.32Z"/><path class="cls-4" d="M269.31,153.37a1.23,1.23,0,0,1-.48-.32,1.28,1.28,0,0,1-.31-.48,1.59,1.59,0,0,1-.12-.62v-.12a1.73,1.73,0,0,1,.13-.69,1.64,1.64,0,0,1,.32-.51,1.36,1.36,0,0,1,.47-.32,1.44,1.44,0,0,1,1.13,0,1.23,1.23,0,0,1,.42.32,1.49,1.49,0,0,1,.26.5,2.37,2.37,0,0,1,.08.61V152H269v0a1.3,1.3,0,0,0,.09.41,1,1,0,0,0,.2.31.95.95,0,0,0,.71.3,1.19,1.19,0,0,0,.51-.11,1.15,1.15,0,0,0,.38-.31l.33.25a1.41,1.41,0,0,1-.47.43,1.55,1.55,0,0,1-.78.19A1.51,1.51,0,0,1,269.31,153.37Zm.23-2.66a.77.77,0,0,0-.27.17,1.15,1.15,0,0,0-.19.28,1.27,1.27,0,0,0-.12.39h1.71v0a1,1,0,0,0-.06-.32.89.89,0,0,0-.15-.29.82.82,0,0,0-.25-.2.8.8,0,0,0-.36-.08A.82.82,0,0,0,269.54,150.71Z"/><path class="cls-4" d="M272.12,150.26h.48l0,.47a1.46,1.46,0,0,1,.16-.19l.17-.14a1.77,1.77,0,0,1,.31-.15,1.34,1.34,0,0,1,.35-.05,1.25,1.25,0,0,1,.45.07.91.91,0,0,1,.35.22,1,1,0,0,1,.22.38,1.73,1.73,0,0,1,.08.55v2h-.54v-2a1.25,1.25,0,0,0-.05-.36.57.57,0,0,0-.14-.24.58.58,0,0,0-.23-.13.91.91,0,0,0-.3,0,.86.86,0,0,0-.28,0,1.08,1.08,0,0,0-.24.12,1.1,1.1,0,0,0-.16.15,1.18,1.18,0,0,0-.13.18v2.28h-.54Z"/><path class="cls-4" d="M275.71,151.16a1.73,1.73,0,0,1,.25-.51,1.16,1.16,0,0,1,.4-.33,1.15,1.15,0,0,1,.53-.12,1.26,1.26,0,0,1,.49.09,1.13,1.13,0,0,1,.37.28v-1.64h.54v4.5h-.5l0-.34a1.1,1.1,0,0,1-.38.3,1.32,1.32,0,0,1-.51.1,1,1,0,0,1-.52-.13,1.09,1.09,0,0,1-.4-.34,1.52,1.52,0,0,1-.25-.51,2.13,2.13,0,0,1-.09-.63v-.06A2.29,2.29,0,0,1,275.71,151.16Zm.5,1.16a1,1,0,0,0,.15.36.72.72,0,0,0,.27.25.65.65,0,0,0,.38.1.74.74,0,0,0,.46-.13.91.91,0,0,0,.28-.33V151.1a1.08,1.08,0,0,0-.28-.32.79.79,0,0,0-.45-.12.8.8,0,0,0-.39.09.93.93,0,0,0-.27.25,1.16,1.16,0,0,0-.15.38,2,2,0,0,0,0,.44v.06A2.12,2.12,0,0,0,276.21,152.32Z"/><path class="cls-4" d="M280.11,153.37a1.23,1.23,0,0,1-.48-.32,1.28,1.28,0,0,1-.31-.48,1.59,1.59,0,0,1-.11-.62v-.12a1.92,1.92,0,0,1,.12-.69,1.5,1.5,0,0,1,.33-.51,1.23,1.23,0,0,1,.46-.32,1.44,1.44,0,0,1,1.13,0,1.38,1.38,0,0,1,.43.32,1.67,1.67,0,0,1,.25.5,2.37,2.37,0,0,1,.08.61V152h-2.26v0a1.3,1.3,0,0,0,.09.41,1,1,0,0,0,.2.31.95.95,0,0,0,.71.3,1.27,1.27,0,0,0,.52-.11,1.12,1.12,0,0,0,.37-.31l.33.25a1.32,1.32,0,0,1-.47.43,1.55,1.55,0,0,1-.78.19A1.51,1.51,0,0,1,280.11,153.37Zm.23-2.66a.65.65,0,0,0-.26.17,1,1,0,0,0-.2.28,1.25,1.25,0,0,0-.11.39h1.7v0a1,1,0,0,0-.06-.32.73.73,0,0,0-.15-.29.82.82,0,0,0-.25-.2.8.8,0,0,0-.36-.08A.82.82,0,0,0,280.34,150.71Z"/><path class="cls-4" d="M285.31,150.22a.59.59,0,0,1,.24.06l-.07.53-.3-.06h-.3a1,1,0,0,0-.36,0,.85.85,0,0,0-.47.34,1.26,1.26,0,0,0-.13.26v2h-.55v-3.17h.52l0,.42v.08a1.5,1.5,0,0,1,.46-.41,1.26,1.26,0,0,1,.62-.15Z"/><path class="cls-4" d="M286.65,151.78v-.44h2.24v.44Z"/><path class="cls-4" d="M290.91,153.37a1.23,1.23,0,0,1-.48-.32,1.42,1.42,0,0,1-.31-.48A1.59,1.59,0,0,1,290,152v-.12a1.92,1.92,0,0,1,.12-.69,1.5,1.5,0,0,1,.33-.51,1.32,1.32,0,0,1,.46-.32,1.44,1.44,0,0,1,1.13,0,1.38,1.38,0,0,1,.43.32,1.67,1.67,0,0,1,.25.5,2,2,0,0,1,.08.61V152h-2.26v0a1.3,1.3,0,0,0,.09.41,1.27,1.27,0,0,0,.2.31,1,1,0,0,0,.31.22.87.87,0,0,0,.4.08,1.24,1.24,0,0,0,.52-.11,1.12,1.12,0,0,0,.37-.31l.33.25a1.32,1.32,0,0,1-.47.43,1.55,1.55,0,0,1-.78.19A1.51,1.51,0,0,1,290.91,153.37Zm.23-2.66a.73.73,0,0,0-.26.17,1,1,0,0,0-.2.28,1.6,1.6,0,0,0-.11.39h1.7v0a1.25,1.25,0,0,0,0-.32.9.9,0,0,0-.16-.29.82.82,0,0,0-.25-.2.8.8,0,0,0-.36-.08A.82.82,0,0,0,291.14,150.71Z"/><path class="cls-4" d="M293.71,151.16a1.52,1.52,0,0,1,.25-.51,1.16,1.16,0,0,1,.4-.33,1.19,1.19,0,0,1,.54-.12,1.58,1.58,0,0,1,.32,0,1.09,1.09,0,0,1,.27.11l.15.1a.8.8,0,0,1,.13.13l0-.31h.49v4.39h-.54v-1.51a.64.64,0,0,1-.15.13l-.16.1a1.06,1.06,0,0,1-.25.09,1.36,1.36,0,0,1-.29,0A1.16,1.16,0,0,1,294,153a1.52,1.52,0,0,1-.25-.51,2.13,2.13,0,0,1-.09-.63v-.06A2.29,2.29,0,0,1,293.71,151.16Zm.51,1.16a1.11,1.11,0,0,0,.15.37.75.75,0,0,0,.27.26.8.8,0,0,0,.39.09.85.85,0,0,0,.23,0,.54.54,0,0,0,.19-.07.79.79,0,0,0,.17-.14.83.83,0,0,0,.13-.18v-1.56a.7.7,0,0,0-.13-.17.93.93,0,0,0-.15-.13.84.84,0,0,0-.2-.08.61.61,0,0,0-.24,0,.74.74,0,0,0-.38.1.84.84,0,0,0-.27.26,1,1,0,0,0-.16.37,1.63,1.63,0,0,0-.06.45v.06A1.61,1.61,0,0,0,294.22,152.32Z"/><path class="cls-4" d="M299.38,153a1.09,1.09,0,0,1-.94.5,1.34,1.34,0,0,1-.46-.08.81.81,0,0,1-.34-.24,1.05,1.05,0,0,1-.22-.42,2.15,2.15,0,0,1-.08-.61v-1.88h.54v1.89a2.52,2.52,0,0,0,0,.43.58.58,0,0,0,.13.26.43.43,0,0,0,.2.15.77.77,0,0,0,.27,0,.94.94,0,0,0,.58-.16.71.71,0,0,0,.15-.15,1.18,1.18,0,0,0,.11-.19v-2.27h.54v3.17h-.49Z"/><path class="cls-4" d="M303,153.27a1.11,1.11,0,0,1,0-.19l-.19.16a1.16,1.16,0,0,1-.22.13l-.26.08a.92.92,0,0,1-.29,0,1.34,1.34,0,0,1-.46-.08,1,1,0,0,1-.34-.2.77.77,0,0,1-.22-.29,1,1,0,0,1-.08-.37,1,1,0,0,1,.1-.46.94.94,0,0,1,.3-.33,1.48,1.48,0,0,1,.46-.19,2.77,2.77,0,0,1,.6-.06h.59v-.25a.71.71,0,0,0-.05-.26.75.75,0,0,0-.15-.2.9.9,0,0,0-.24-.12,1,1,0,0,0-.31,0,.85.85,0,0,0-.29,0,.51.51,0,0,0-.22.11.48.48,0,0,0-.18.35h-.54a.81.81,0,0,1,.08-.34,1,1,0,0,1,.25-.3,1.39,1.39,0,0,1,.4-.22,1.69,1.69,0,0,1,.53-.08,1.63,1.63,0,0,1,.5.07,1.24,1.24,0,0,1,.4.19.88.88,0,0,1,.26.34,1,1,0,0,1,.1.46v1.48a2,2,0,0,0,0,.33,2,2,0,0,0,.08.31v.05H303A.49.49,0,0,1,303,153.27Zm-.61-.3a1,1,0,0,0,.26-.1l.19-.16a1,1,0,0,0,.13-.18v-.64h-.51a2.38,2.38,0,0,0-.49.05.72.72,0,0,0-.33.15.4.4,0,0,0-.13.16.54.54,0,0,0,0,.22.78.78,0,0,0,0,.22.52.52,0,0,0,.12.17.43.43,0,0,0,.2.11.79.79,0,0,0,.28,0A.92.92,0,0,0,302.34,153Z"/><path class="cls-4" d="M306.23,148.93v4h1v.47h-2.65V153h1.08V149.4h-1.08v-.47Z"/><path class="cls-4" d="M309.83,150.26V153h1v.47h-2.65V153h1.08v-2.23h-1.08v-.47Zm-.59-1a.23.23,0,0,1,.07-.1.17.17,0,0,1,.1-.06.27.27,0,0,1,.13,0,.32.32,0,0,1,.14,0,.15.15,0,0,1,.09.06.17.17,0,0,1,.07.1.32.32,0,0,1,0,.14.35.35,0,0,1-.08.22.37.37,0,0,1-.25.08.33.33,0,0,1-.24-.08.3.3,0,0,1-.08-.22A.32.32,0,0,1,309.24,149.29Z"/><path class="cls-4" d="M313,150.26h1.21v.42H313v1.72a.67.67,0,0,0,.05.3.44.44,0,0,0,.12.19.52.52,0,0,0,.19.11.85.85,0,0,0,.23,0h.18l.19,0,.16,0,.13,0,.08.39-.17.07-.21.05a1,1,0,0,1-.24,0l-.25,0a1.25,1.25,0,0,1-.4-.06.83.83,0,0,1-.32-.2.78.78,0,0,1-.21-.33,1.5,1.5,0,0,1-.08-.5v-1.72h-.83v-.42h.83v-.77H313Z"/><path class="cls-4" d="M315.4,154.69l-.15,0,.08-.44h.26a.39.39,0,0,0,.21-.06A1.07,1.07,0,0,0,316,154a.94.94,0,0,0,.12-.18,1.15,1.15,0,0,0,.08-.15l.22-.42-1.36-3h.6l.87,2,.14.39.15-.38.82-2.05h.61l-1.61,3.66a2.43,2.43,0,0,1-.15.26,1.15,1.15,0,0,1-.49.45.92.92,0,0,1-.38.08Z"/><path class="cls-4" d="M319.15,153.79l1.79-4.63h.48l-1.78,4.63Z"/><path class="cls-4" d="M207.94,179.17a2.71,2.71,0,0,1-.18.59,1.45,1.45,0,0,1-.33.43.77.77,0,0,1-.49.17,1.09,1.09,0,0,1-.26,0,.5.5,0,0,1-.19-.13.64.64,0,0,1-.1-.13,1.22,1.22,0,0,1-.07-.17l-.14.18-.16.14a1,1,0,0,1-.23.11.69.69,0,0,1-.25,0,.65.65,0,0,1-.34-.1A.82.82,0,0,1,205,180a1.64,1.64,0,0,1-.13-.44,2.52,2.52,0,0,1,0-.55,3.71,3.71,0,0,1,.14-.79,2.16,2.16,0,0,1,.28-.59,1.34,1.34,0,0,1,.41-.38,1.06,1.06,0,0,1,.5-.13.84.84,0,0,1,.44.11,1.05,1.05,0,0,1,.27.24l-.17,2a1,1,0,0,0,0,.26.26.26,0,0,0,.06.15.14.14,0,0,0,.09.08l.11,0a.36.36,0,0,0,.26-.11.8.8,0,0,0,.18-.3,2.55,2.55,0,0,0,.12-.44,4.56,4.56,0,0,0,0-.54,3.51,3.51,0,0,0-.08-.89,1.8,1.8,0,0,0-.3-.67,1.41,1.41,0,0,0-.49-.42,1.46,1.46,0,0,0-.67-.14,1.36,1.36,0,0,0-.69.17,1.8,1.8,0,0,0-.56.48,2.36,2.36,0,0,0-.4.81,3.72,3.72,0,0,0-.16,1,3.46,3.46,0,0,0,.07.94,1.79,1.79,0,0,0,.3.7,1.32,1.32,0,0,0,.53.44,1.78,1.78,0,0,0,.76.15h.24a2.1,2.1,0,0,0,.24-.06l.22-.07.19-.11.13.46a1.26,1.26,0,0,1-.23.13l-.26.09-.28.05-.26,0a2.33,2.33,0,0,1-1-.2,1.76,1.76,0,0,1-.67-.57,2.5,2.5,0,0,1-.38-.86,4.81,4.81,0,0,1-.09-1.1,3.91,3.91,0,0,1,.21-1.19,3.18,3.18,0,0,1,.5-1,2,2,0,0,1,.7-.61,1.91,1.91,0,0,1,1.74,0,1.74,1.74,0,0,1,.62.53,2.48,2.48,0,0,1,.38.82,4.08,4.08,0,0,1,.11,1.08A5.08,5.08,0,0,1,207.94,179.17Zm-2.61.16a.9.9,0,0,0,.06.27.5.5,0,0,0,.11.16.25.25,0,0,0,.17.06.57.57,0,0,0,.22,0,.82.82,0,0,0,.2-.12,1.47,1.47,0,0,0,.1-.13,1,1,0,0,0,.1-.17v0l.15-1.7-.11,0h-.12a.69.69,0,0,0-.36.1.88.88,0,0,0-.26.28,1.57,1.57,0,0,0-.17.45,4.18,4.18,0,0,0-.09.58A2,2,0,0,0,205.33,179.33Z"/><path class="cls-4" d="M213.53,181.61v-.52L215.4,179l.41-.49a2.34,2.34,0,0,0,.27-.4,1.61,1.61,0,0,0,.15-.34,1.27,1.27,0,0,0,0-.34,1,1,0,0,0-.07-.39.89.89,0,0,0-.19-.33,1,1,0,0,0-.74-.29,1.28,1.28,0,0,0-.5.08.82.82,0,0,0-.34.23.8.8,0,0,0-.21.37,1.43,1.43,0,0,0-.07.48h-.73a1.91,1.91,0,0,1,.13-.68,1.58,1.58,0,0,1,.36-.56,1.83,1.83,0,0,1,.58-.38,2.13,2.13,0,0,1,.78-.14,2,2,0,0,1,.72.12,1.45,1.45,0,0,1,.89.83,1.61,1.61,0,0,1,.12.63,1.43,1.43,0,0,1-.09.5,2.42,2.42,0,0,1-.23.49,4.71,4.71,0,0,1-.34.48c-.13.16-.27.32-.41.47L214.4,181h2.86v.59Z"/><path class="cls-4" d="M222,180.4a2.2,2.2,0,0,1-.36.7,1.57,1.57,0,0,1-.58.44,1.86,1.86,0,0,1-.77.15,1.94,1.94,0,0,1-.78-.15,1.47,1.47,0,0,1-.58-.44,2,2,0,0,1-.37-.7,3.58,3.58,0,0,1-.12-1V178.1a3.5,3.5,0,0,1,.12-1,2.08,2.08,0,0,1,.37-.71,1.54,1.54,0,0,1,.57-.44,2.1,2.1,0,0,1,1.56,0,1.57,1.57,0,0,1,.58.44,2.25,2.25,0,0,1,.36.71,3.5,3.5,0,0,1,.12,1v1.33A3.58,3.58,0,0,1,222,180.4Zm-.62-2.81a2.31,2.31,0,0,0-.11-.5,1.28,1.28,0,0,0-.22-.36.87.87,0,0,0-.32-.22,1.25,1.25,0,0,0-.45-.08,1.34,1.34,0,0,0-.46.08.88.88,0,0,0-.33.24,1.13,1.13,0,0,0-.24.49,2.43,2.43,0,0,0-.09.7v1.35Zm0,1.19v-.5L219.2,180a2.14,2.14,0,0,0,.13.5,1.06,1.06,0,0,0,.23.36.83.83,0,0,0,.32.2,1.18,1.18,0,0,0,.43.07,1.14,1.14,0,0,0,.43-.07.83.83,0,0,0,.33-.22,1.09,1.09,0,0,0,.26-.5,2.6,2.6,0,0,0,.09-.73Z"/><path class="cls-4" d="M223.13,181.61v-.52L225,179l.42-.49a3,3,0,0,0,.26-.4,1.61,1.61,0,0,0,.15-.34,1.27,1.27,0,0,0,0-.34,1,1,0,0,0-.07-.39.89.89,0,0,0-.19-.33,1,1,0,0,0-.74-.29,1.28,1.28,0,0,0-.5.08.82.82,0,0,0-.34.23.9.9,0,0,0-.21.37,1.43,1.43,0,0,0-.07.48H223a1.91,1.91,0,0,1,.13-.68,1.58,1.58,0,0,1,.36-.56,1.83,1.83,0,0,1,.58-.38,2.13,2.13,0,0,1,.78-.14,2,2,0,0,1,.72.12,1.58,1.58,0,0,1,.55.33,1.43,1.43,0,0,1,.34.5,1.61,1.61,0,0,1,.12.63,1.43,1.43,0,0,1-.09.5,2,2,0,0,1-.23.49,4.71,4.71,0,0,1-.34.48,6,6,0,0,1-.41.47L224,181h2.85v.59Z"/><path class="cls-4" d="M231.62,180.4a1.86,1.86,0,0,1-.36.7,1.57,1.57,0,0,1-.58.44,1.86,1.86,0,0,1-.77.15,1.94,1.94,0,0,1-.78-.15,1.47,1.47,0,0,1-.58-.44,2,2,0,0,1-.37-.7,3.58,3.58,0,0,1-.12-1V178.1a3.5,3.5,0,0,1,.12-1,2.08,2.08,0,0,1,.37-.71,1.54,1.54,0,0,1,.57-.44,2.1,2.1,0,0,1,1.56,0,1.57,1.57,0,0,1,.58.44,1.9,1.9,0,0,1,.36.71,3.5,3.5,0,0,1,.12,1v1.33A3.58,3.58,0,0,1,231.62,180.4Zm-.62-2.81a2.31,2.31,0,0,0-.11-.5,1.09,1.09,0,0,0-.22-.36.8.8,0,0,0-.32-.22,1.25,1.25,0,0,0-.45-.08,1.34,1.34,0,0,0-.46.08.88.88,0,0,0-.33.24,1.13,1.13,0,0,0-.24.49,2.45,2.45,0,0,0-.08.7v1.35Zm0,1.19v-.5L228.81,180a1.75,1.75,0,0,0,.12.5,1,1,0,0,0,.24.36.7.7,0,0,0,.32.2,1.09,1.09,0,0,0,.42.07,1.23,1.23,0,0,0,.44-.07.87.87,0,0,0,.32-.22,1.09,1.09,0,0,0,.26-.5,2.6,2.6,0,0,0,.09-.73Z"/></g></g></svg>