<svg xmlns="http://www.w3.org/2000/svg" viewBox="0 0 95.22 114.44"><defs><style>.cls-1,.cls-2{fill-rule:evenodd;}.cls-2{fill:#b28b67;}</style></defs><g id="Layer_2" data-name="Layer 2"><g id="Layer_1-2" data-name="Layer 1"><g id="Head_Front_Long" data-name="Head Front Long"><path id="Hair-Back" class="cls-1" d="M87.33,27.18c5.13,18.88,11.8,61.31,5,68H49.22c0-.08,0-.15,0-.23a32,32,0,0,1-28.4-31.76V32A32,32,0,0,1,52.76,0h3A32,32,0,0,1,87.33,27.18Z"/><g id="Head"><path id="Path_8" data-name="Path 8" class="cls-2" d="M37.55,57.2c-6.85-8-11.48-17.89-10.71-28.92C29.07-3.53,73.34,3.47,82,19.52s7.59,56.77-3.54,59.64C74,80.3,64.52,77.5,54.89,71.7l6,42.74H25.27Z"/></g><path id="Hair-Front" class="cls-1" d="M47.19,51.83c1.64,17.65,1,37.81-3.92,42.6H.17C-2.23,52.71,21,68.86,21,29.58c1.45-1.41,2.82-2.81,4.17-4l0-1.16Q36.29,1.5,53.5,1.49c17.21,0,22.64,8,27.27,14.8C77.31,28.16,63.89,29.92,52,37.32a8.17,8.17,0,1,0-5.15,14.52Z"/></g></g></g></svg>