<svg xmlns="http://www.w3.org/2000/svg" viewBox="0 0 133.5 126"><defs><style>.cls-1{fill:#b28b67;}.cls-1,.cls-2{fill-rule:evenodd;}</style></defs><g id="Layer_2" data-name="Layer 2"><g id="Layer_1-2" data-name="Layer 1"><g id="Head_Front_Pony" data-name="Head Front Pony"><g id="Head"><path id="Path_11" data-name="Path 11" class="cls-1" d="M82.89,68.23C76,60.12,71.3,50.18,72.09,39,74.34,6.93,119,14,127.72,30.2s7.65,57.3-3.58,60.2c-4.48,1.15-14-1.68-23.74-7.54L106.5,126h-36Z"/></g><path id="hair" class="cls-2" d="M95.35,66c-4.46,8.57-10.63,15-16.8,15-11.72,0-20-15.67-20-32.51,0-.59,0-1.18,0-1.76C46.14,55.23,36.59,72,20.19,72c-22.31,0-31.17-45,0-45,21.2,0,31.63,3.09,40.61,7.66a29.27,29.27,0,0,1,7.78-12.13A12.11,12.11,0,0,1,72.17,20a17,17,0,0,1,3-1.28c5.42-2,13.27-3.4,22-3.7,1.63-.05,3.24-.07,4.81-.05a15,15,0,1,1,15.81,15A75.65,75.65,0,0,1,101,32.83a31.59,31.59,0,0,1,1,8,45.25,45.25,0,0,1-.84,8.37A7,7,0,0,0,96,46.5a9,9,0,0,0-9,9C87,61.38,90.4,65.63,95.35,66Z"/></g></g></g></svg>