<svg xmlns="http://www.w3.org/2000/svg" viewBox="0 0 122.18 123.71"><defs><style>.cls-1{fill:#b28b67;}.cls-1,.cls-2{fill-rule:evenodd;}.cls-2{fill:#c1b321;}</style></defs><g id="Layer_2" data-name="Layer 2"><g id="Layer_1-2" data-name="Layer 1"><g id="Head"><path id="Path_10" data-name="Path 10" class="cls-1" d="M70.65,64.9c-7-8.26-11.8-18.38-11-29.72,2.29-32.69,47.79-25.5,56.64-9s7.8,58.33-3.64,61.28c-4.56,1.18-14.28-1.7-24.17-7.66l6.21,43.91H58Z"/></g><path id="hair" class="cls-2" d="M119.74,33.59a41.35,41.35,0,0,0-2-6.54,30.64,30.64,0,0,0-3.86-7.17,54.16,54.16,0,0,0-10.2-11.07C96.72,3.1,87.81-.2,79,.87a25.47,25.47,0,0,0-12.37,5c-3.3,2.54-6.49,6.28-10.76,6.55C51.25,12.75,47,8.64,43.25,6.1A34.05,34.05,0,0,0,29.65.35,22.62,22.62,0,0,0,8,8.54C1.94,15.73-2.45,26.28,1.52,35.81a12.15,12.15,0,0,0,3.05,4.5c1.25,1.14,3.15,2.35,3.66,4.16s-1.07,4.42-1.69,6.16a18,18,0,0,0-1.37,7.82c.43,4.45,3.23,8.7,6.18,11.62A20.53,20.53,0,0,0,22,75.54a29.54,29.54,0,0,0,8,.62,24.35,24.35,0,0,0,3.8-.76,3.42,3.42,0,0,1,3,.74,24.78,24.78,0,0,0,16,4c4.82-.4,10.37-1.57,14.3-4.87,4.36-3.66,4.28-8.71,3.25-14.11,1.09.53,4.1.87,2.3-1.28-.71-.85-2.06-1.2-3-1.7a10.69,10.69,0,0,1-3-2.29c-3.34-3.84,0-11.65,4.23-12.94C77.16,41,78.55,49.8,83,52.08c2.56,1.32,5.23-.48,7.15-2.31a28.63,28.63,0,0,0,5.83-9c1.24-2.72,2.4-5.48,3.67-8.18.59-1.27,2.64-4.84,1.61-6.27,4.46-.89,9.44,1,13.28,3.4a9.08,9.08,0,0,1,3.65,3.89c.18.38.57,1.51,1.07,1.56.92.08.58-1.05.49-1.58"/></g></g></svg>