<svg xmlns="http://www.w3.org/2000/svg" viewBox="0 0 91.47 136.44"><defs><style>.cls-1{fill:#b28b67;}.cls-1,.cls-2{fill-rule:evenodd;}.cls-2{fill:#693f47;}</style></defs><g id="Layer_2" data-name="Layer 2"><g id="Layer_1-2" data-name="Layer 1"><g id="Head_Front_Top" data-name="Head Front Top"><g id="Head"><path id="Path_9" data-name="Path 9" class="cls-1" d="M39.17,76.73C32,68.35,27.19,58.07,28,46.56c2.33-33.18,48.52-25.88,57.5-9.14s7.92,59.23-3.69,62.22c-4.63,1.19-14.5-1.73-24.54-7.78l6.3,44.58H26.36Z"/></g><path id="Hair" class="cls-2" d="M46.51,22.93C65.2,16.45,89.46,24,86.21,39.2,84.13,48.94,72.84,53.81,61.73,59a9.57,9.57,0,0,0-8.33-4.75,9.42,9.42,0,0,0-9.54,9.3,9.07,9.07,0,0,0,1.51,5c-3.74,3.25-6.37,7.16-7,12.24-6,0-15.76-17.69-12.54-34.46a22,22,0,0,1-2.57.14A23.26,23.26,0,1,1,46.51,22.93Z"/></g></g></g></svg>