<svg xmlns="http://www.w3.org/2000/svg" viewBox="0 0 91.73 116.09"><defs><style>.cls-1{fill:#b28b67;}.cls-1,.cls-2,.cls-3,.cls-4{fill-rule:evenodd;}.cls-2{fill:#2c2c2c;}.cls-3{fill:#ff3a20;}.cls-4{fill:#ed1c24;}</style></defs><g id="Layer_2" data-name="Layer 2"><g id="Layer_1-2" data-name="Layer 1"><g id="Head"><path id="Path_7" data-name="Path 7" class="cls-1" d="M39.69,56.69c-7.11-8.34-11.92-18.57-11.12-30,2.32-33,48.27-25.75,57.21-9.08s7.88,58.92-3.68,61.9c-4.6,1.18-14.42-1.73-24.41-7.75L64,116.09h-37Z"/></g><path id="Front" class="cls-2" d="M77.44,6.59c-.85-.51-2.62-1.58-3.52-2-.22-.09-1.7-1.15-1.74-1.14-1.13.38-4.4,1.79-4.68,3a2.1,2.1,0,0,1-.13.26c-.46.84-.88,1.7-1.29,2.57-.89,1.92-1.65,3.92-2.39,5.9C62.27,19.08,61,23,59.89,27s-2.15,8.13-3.25,12.18C55.05,45,53,50.71,51.45,56.54a33.82,33.82,0,0,0-1.3,11.32V68a.13.13,0,0,0,0,.06c0,.59.11,1.18.19,1.77s.15,1,.23,1.52c1.44-2.87,2.54-6,3.7-9,.12-.29.23-.59.33-.89.38-.61.76-1.21,1.15-1.81,2.45-3.8,4.9-7.58,7.24-11.45,4.22-7,8.4-14.05,13.4-20.43,1.47-1.88,3-3.74,4.44-5.64.83-1.08,1.63-2.18,2.42-3.3.56-.8,3-3.59,2.11-5.27C84.92,12.69,79.64,7.9,77.44,6.59Z"/><path id="Turban" class="cls-3" d="M74.18,4.77c.83.27.43-1.44-.37-2C70.11-.07,56-1.09,43.65,1.47c-8.25,1.71-17.84,6-24.43,11.45-5.93,4.94-10,12.85-12.12,20.5A59.56,59.56,0,0,0,5.79,58.06c.27,1.81.85,3.53,1.17,5.3a41.57,41.57,0,0,0,1.2,5.85c.4,1.19,1.07,2.36,1.41,3.55a8.13,8.13,0,0,1-.13,4A42.78,42.78,0,0,1,7.6,83.44C6.38,86.68,4.9,89.72,4,93.08c-1.24,4.48-6.39,19-2.62,23H73.11c-1.8-4.93-7.23-10.73-8.32-16-.65-3.11-1-9.9-1-10.15C62.15,78.79,59,73.46,57,71.53S52.4,69,52.26,67.33c-.56-6.93,2.2-13.57,4.22-20,2.41-7.71,4.17-15.61,6.66-23.29C64.24,20.61,69.9,3.33,74.18,4.77Z"/><path id="Shade" class="cls-4" d="M49,12.74c-2.71,8.59-3.29,13.17-2.71,24.9H45c-2.48-11.07-.27-21.49,2.37-24.9ZM12.72,34.9c5,12.24,7.35,19.46,21.43,29.36L33.06,65C19.08,57.1,15,47.65,11.66,35.41ZM33.44,22.45c2.29,17.36,3,27.29,14.89,46.28l-1.26.39c-12.29-16.54-14.23-30-14.81-46.58ZM20.26,74l1.09-1.32c14.82,4.64,13.17,14.22,31.83,23.93l-1.56.94C35.28,90.85,31.46,76.38,20.26,74Z"/></g></g></svg>