<svg xmlns="http://www.w3.org/2000/svg" viewBox="0 0 489 181.14"><defs><style>.cls-1{fill:#ff3a20;}.cls-2{fill:#f7f4ef;}</style></defs><g id="Layer_2" data-name="Layer 2"><g id="Layer_1-2" data-name="Layer 1"><g id="Group_75" data-name="Group 75"><path class="cls-1" d="M489,0V127.72c-144.88,103.13-221.48-18.64-352.54,28.92C77.5,178,32.25,182.52,0,180.81V0Z"/><g id="Group_4" data-name="Group 4"><path id="Path_1" data-name="Path 1" class="cls-2" d="M394.81,65.27h23.93a2.91,2.91,0,0,0,2.91-2.91v-4.8h-23.4A3.44,3.44,0,0,0,394.81,61Z"/><path id="Path_2" data-name="Path 2" class="cls-2" d="M394.81,76.74h23.93a2.91,2.91,0,0,0,2.91-2.91V69h-23.4a3.44,3.44,0,0,0-3.44,3.44Z"/><path id="Path_3" data-name="Path 3" class="cls-2" d="M426.79,26v8.45h7.27a.72.72,0,0,1,.73.73.71.71,0,0,1-.21.51l-7.77,7.91a.93.93,0,0,1-1.22.09A29.27,29.27,0,0,0,402,38.58a28.89,28.89,0,0,0-22.52,23.14,29.26,29.26,0,0,0,23.37,34.15l.61.1a.85.85,0,0,1,.71.84v7.43a.66.66,0,0,1-.66.66h-8v8.45h7.92a.71.71,0,0,1,.71.71v8.49h8.45v-8.4a.8.8,0,0,1,.81-.8h8.18V104.9h-8.4a.58.58,0,0,1-.59-.59V96.67a.76.76,0,0,1,.63-.75,29.18,29.18,0,0,0,19.2-45,.92.92,0,0,1,.11-1.16l7.34-7.47a.88.88,0,0,1,1.51.62v6.21h8.45V26ZM429,72.93c-1.7,6.49-8.48,13.26-15,15a21.57,21.57,0,0,1-26.52-26.52c1.7-6.48,8.48-13.26,15-15A21.57,21.57,0,0,1,429,72.93Z"/></g></g></g></g></svg>