<svg xmlns="http://www.w3.org/2000/svg" viewBox="0 0 565 382.26"><defs><style>.cls-1{fill:#f7f4ef;}.cls-2{fill:#fff;}</style></defs><g id="Layer_2" data-name="Layer 2"><g id="Layer_1-2" data-name="Layer 1"><rect class="cls-1" width="565" height="382.26"/><g id="Group_25" data-name="Group 25"><g id="Group_9" data-name="Group 9"><path id="Path_1" data-name="Path 1" class="cls-2" d="M399.09,231h10.62a1.29,1.29,0,0,0,1.29-1.29v-2.13H400.62a1.53,1.53,0,0,0-1.53,1.52h0Z"/><path id="Path_2" data-name="Path 2" class="cls-2" d="M399.09,236.12h10.62a1.29,1.29,0,0,0,1.29-1.29h0V232.7H400.62a1.53,1.53,0,0,0-1.53,1.52h0Z"/><path id="Path_3" data-name="Path 3" class="cls-2" d="M413.28,213.6v3.75h3.22a.33.33,0,0,1,.33.33.32.32,0,0,1-.1.22l-3.44,3.51a.41.41,0,0,1-.54,0,13,13,0,0,0-10.45-2.26,12.82,12.82,0,0,0-10,10.26,13,13,0,0,0,10.37,15.15l.27,0a.38.38,0,0,1,.32.37v3.3a.3.3,0,0,1-.3.29h-3.54v3.75H403a.31.31,0,0,1,.31.31v3.77H407v-3.72a.36.36,0,0,1,.36-.36H411V248.6h-3.73a.26.26,0,0,1-.26-.26h0V245a.34.34,0,0,1,.28-.33,13,13,0,0,0,8.52-20,.42.42,0,0,1,0-.52l3.26-3.31a.39.39,0,0,1,.55,0,.36.36,0,0,1,.12.28v2.75h3.75V213.6Zm-5.67,27.46a9.57,9.57,0,0,1-11.76-11.76,10.35,10.35,0,0,1,6.63-6.64,9.58,9.58,0,0,1,11.77,6.69,9.73,9.73,0,0,1,0,5.08,10.35,10.35,0,0,1-6.64,6.63Z"/></g><g id="Group_19" data-name="Group 19"><path id="Path_1-2" data-name="Path 1-2" class="cls-2" d="M399.09,111.68h10.62a1.29,1.29,0,0,0,1.29-1.29v-2.13H400.62a1.53,1.53,0,0,0-1.53,1.53h0Z"/><path id="Path_2-2" data-name="Path 2-2" class="cls-2" d="M399.09,116.77h10.62a1.29,1.29,0,0,0,1.29-1.29h0v-2.13H400.62a1.53,1.53,0,0,0-1.53,1.53h0Z"/><path id="Path_3-2" data-name="Path 3-2" class="cls-2" d="M413.28,94.26V98h3.22a.33.33,0,0,1,.33.33.32.32,0,0,1-.1.22l-3.44,3.51a.4.4,0,0,1-.54,0,13,13,0,0,0-10.45-2.26,12.82,12.82,0,0,0-10,10.26,13,13,0,0,0,10.37,15.15l.27,0a.38.38,0,0,1,.32.37V129a.3.3,0,0,1-.3.29h-3.54V133H403a.31.31,0,0,1,.31.32v3.76H407v-3.72a.36.36,0,0,1,.36-.36H411v-3.74h-3.73A.26.26,0,0,1,407,129h0v-3.39a.34.34,0,0,1,.28-.34,13,13,0,0,0,8.52-20,.41.41,0,0,1,0-.51l3.26-3.32a.39.39,0,0,1,.55,0,.36.36,0,0,1,.12.28v2.75h3.75V94.26Zm-5.67,27.45A9.56,9.56,0,0,1,395.85,110a10.35,10.35,0,0,1,6.63-6.64A9.58,9.58,0,0,1,414.25,110a9.73,9.73,0,0,1,0,5.08,10.35,10.35,0,0,1-6.64,6.63Z"/></g><g id="Group_14" data-name="Group 14"><path id="Path_1-3" data-name="Path 1-3" class="cls-2" d="M399.09,290.7h10.62a1.29,1.29,0,0,0,1.29-1.29v-2.13H400.62a1.53,1.53,0,0,0-1.53,1.53h0Z"/><path id="Path_2-3" data-name="Path 2-3" class="cls-2" d="M399.09,295.79h10.62A1.29,1.29,0,0,0,411,294.5h0v-2.13H400.62a1.53,1.53,0,0,0-1.53,1.53h0Z"/><path id="Path_3-3" data-name="Path 3-3" class="cls-2" d="M413.28,273.28V277h3.22a.32.32,0,0,1,.33.32.34.34,0,0,1-.1.23l-3.44,3.5a.4.4,0,0,1-.54,0,13,13,0,0,0-10.45-2.26,12.82,12.82,0,0,0-10,10.27,13,13,0,0,0,10.37,15.14l.27.05a.38.38,0,0,1,.32.37V308a.3.3,0,0,1-.3.29h-3.54V312H403a.31.31,0,0,1,.31.32v3.76H407v-3.72a.36.36,0,0,1,.36-.35H411v-3.75h-3.73A.26.26,0,0,1,407,308h0v-3.39a.34.34,0,0,1,.28-.34,13,13,0,0,0,8.52-20,.41.41,0,0,1,0-.51l3.26-3.31a.38.38,0,0,1,.55,0,.39.39,0,0,1,.12.28v2.75h3.75V273.28Zm-5.67,27.45A9.56,9.56,0,0,1,395.85,289a10.34,10.34,0,0,1,6.63-6.63A9.57,9.57,0,0,1,414.25,289a9.73,9.73,0,0,1,0,5.08,10.35,10.35,0,0,1-6.64,6.63Z"/></g><g id="Group_20" data-name="Group 20"><path id="Path_1-4" data-name="Path 1-4" class="cls-2" d="M399.09,171.35h10.62a1.29,1.29,0,0,0,1.29-1.29v-2.13H400.62a1.54,1.54,0,0,0-1.53,1.53h0Z"/><path id="Path_2-4" data-name="Path 2-4" class="cls-2" d="M399.09,176.44h10.62a1.29,1.29,0,0,0,1.29-1.29h0V173H400.62a1.54,1.54,0,0,0-1.53,1.53h0Z"/><path id="Path_3-4" data-name="Path 3-4" class="cls-2" d="M413.28,153.93v3.75h3.22a.32.32,0,0,1,.23.55l-3.44,3.51a.42.42,0,0,1-.54,0,13,13,0,0,0-10.45-2.26,12.8,12.8,0,0,0-10,10.26,13,13,0,0,0,10.37,15.14l.27.05a.38.38,0,0,1,.32.37v3.3a.3.3,0,0,1-.3.29h-3.54v3.75H403a.31.31,0,0,1,.31.31v3.76H407V193a.36.36,0,0,1,.36-.35H411v-3.75h-3.73a.26.26,0,0,1-.26-.26h0v-3.39a.33.33,0,0,1,.28-.33,13,13,0,0,0,8.52-20,.41.41,0,0,1,0-.51l3.26-3.31a.38.38,0,0,1,.55,0,.39.39,0,0,1,.12.28v2.76h3.75V153.93Zm-5.67,27.46a9.57,9.57,0,0,1-11.76-11.77,10.34,10.34,0,0,1,6.63-6.63,9.58,9.58,0,0,1,11.77,6.68,9.73,9.73,0,0,1,0,5.08,10.37,10.37,0,0,1-6.64,6.64Z"/></g><g id="Group_10" data-name="Group 10"><path id="Path_1-5" data-name="Path 1-5" class="cls-2" d="M446.05,231h10.61a1.29,1.29,0,0,0,1.29-1.29v-2.13H447.57a1.52,1.52,0,0,0-1.52,1.52h0Z"/><path id="Path_2-5" data-name="Path 2-5" class="cls-2" d="M446.05,236.12h10.61a1.29,1.29,0,0,0,1.29-1.29h0V232.7H447.57a1.52,1.52,0,0,0-1.52,1.52h0Z"/><path id="Path_3-5" data-name="Path 3-5" class="cls-2" d="M460.23,213.6v3.75h3.23a.32.32,0,0,1,.32.33.31.31,0,0,1-.09.22l-3.45,3.51a.41.41,0,0,1-.54,0,13,13,0,0,0-10.44-2.26,12.82,12.82,0,0,0-10,10.26,13,13,0,0,0,10.36,15.15l.27,0a.38.38,0,0,1,.32.37v3.3a.29.29,0,0,1-.29.29h-3.54v3.75h3.51a.31.31,0,0,1,.32.31v3.77H454v-3.72a.36.36,0,0,1,.36-.36H458V248.6h-3.73a.26.26,0,0,1-.26-.26h0V245a.34.34,0,0,1,.28-.33,13,13,0,0,0,10.52-15,13.15,13.15,0,0,0-2-5,.41.41,0,0,1,.05-.52l3.25-3.31a.4.4,0,0,1,.56,0,.39.39,0,0,1,.11.28v2.75h3.75V213.6Zm-5.67,27.46A9.57,9.57,0,0,1,442.8,229.3a10.37,10.37,0,0,1,6.63-6.64,9.57,9.57,0,0,1,11.77,11.77,10.35,10.35,0,0,1-6.64,6.63Z"/></g><g id="Group_16" data-name="Group 16"><path id="Path_1-6" data-name="Path 1-6" class="cls-2" d="M446.05,111.68h10.61a1.29,1.29,0,0,0,1.29-1.29v-2.13H447.57a1.52,1.52,0,0,0-1.52,1.53h0Z"/><path id="Path_2-6" data-name="Path 2-6" class="cls-2" d="M446.05,116.77h10.61a1.29,1.29,0,0,0,1.29-1.29h0v-2.13H447.57a1.52,1.52,0,0,0-1.52,1.53h0Z"/><path id="Path_3-6" data-name="Path 3-6" class="cls-2" d="M460.23,94.26V98h3.23a.32.32,0,0,1,.32.33.31.31,0,0,1-.09.22l-3.45,3.51a.4.4,0,0,1-.54,0,13,13,0,0,0-10.44-2.26,12.82,12.82,0,0,0-10,10.26,13,13,0,0,0,10.36,15.15l.27,0a.37.37,0,0,1,.32.37V129a.29.29,0,0,1-.29.29h-3.54V133h3.51a.32.32,0,0,1,.32.32v3.76H454v-3.72a.36.36,0,0,1,.36-.36H458v-3.74h-3.73A.26.26,0,0,1,454,129h0v-3.39a.34.34,0,0,1,.28-.34,13,13,0,0,0,10.52-15,13.15,13.15,0,0,0-2-5,.39.39,0,0,1,.05-.51l3.25-3.32a.4.4,0,0,1,.56,0,.39.39,0,0,1,.11.28v2.75h3.75V94.26Zm-5.67,27.45A9.56,9.56,0,0,1,442.8,110a10.37,10.37,0,0,1,6.63-6.64,9.57,9.57,0,0,1,11.77,11.77,10.35,10.35,0,0,1-6.64,6.63Z"/></g><g id="Group_13" data-name="Group 13"><path id="Path_1-7" data-name="Path 1-7" class="cls-2" d="M446.05,290.7h10.61a1.29,1.29,0,0,0,1.29-1.29v-2.13H447.57a1.52,1.52,0,0,0-1.52,1.53h0Z"/><path id="Path_2-7" data-name="Path 2-7" class="cls-2" d="M446.05,295.79h10.61A1.29,1.29,0,0,0,458,294.5h0v-2.13H447.57a1.52,1.52,0,0,0-1.52,1.53h0Z"/><path id="Path_3-7" data-name="Path 3-7" class="cls-2" d="M460.23,273.28V277h3.23a.32.32,0,0,1,.32.32.33.33,0,0,1-.09.23l-3.45,3.5a.4.4,0,0,1-.54,0,13,13,0,0,0-10.44-2.26,12.82,12.82,0,0,0-10,10.27,13,13,0,0,0,10.36,15.14l.27.05a.37.37,0,0,1,.32.37V308a.29.29,0,0,1-.29.29h-3.54V312h3.51a.32.32,0,0,1,.32.32v3.76H454v-3.72a.36.36,0,0,1,.36-.35H458v-3.75h-3.73A.26.26,0,0,1,454,308h0v-3.39a.34.34,0,0,1,.28-.34,13,13,0,0,0,10.52-15,13.15,13.15,0,0,0-2-5,.4.4,0,0,1,.05-.51l3.25-3.31a.4.4,0,0,1,.56,0,.43.43,0,0,1,.11.28v2.75h3.75V273.28Zm-5.67,27.45A9.56,9.56,0,0,1,442.8,289a10.36,10.36,0,0,1,6.63-6.63A9.57,9.57,0,0,1,461.2,294.1a10.35,10.35,0,0,1-6.64,6.63Z"/></g><g id="Group_17" data-name="Group 17"><path id="Path_1-8" data-name="Path 1-8" class="cls-2" d="M446.05,171.35h10.61a1.29,1.29,0,0,0,1.29-1.29v-2.13H447.57a1.53,1.53,0,0,0-1.52,1.53h0Z"/><path id="Path_2-8" data-name="Path 2-8" class="cls-2" d="M446.05,176.44h10.61a1.29,1.29,0,0,0,1.29-1.29h0V173H447.57a1.53,1.53,0,0,0-1.52,1.53h0Z"/><path id="Path_3-8" data-name="Path 3-8" class="cls-2" d="M460.23,153.93v3.75h3.23a.33.33,0,0,1,.23.55l-3.45,3.51a.42.42,0,0,1-.54,0,12.93,12.93,0,0,0-10.44-2.26,12.8,12.8,0,0,0-10,10.26,13,13,0,0,0,10.36,15.14l.27.05a.38.38,0,0,1,.32.37v3.3a.29.29,0,0,1-.29.29h-3.54v3.75h3.51a.31.31,0,0,1,.32.31v3.76H454V193a.36.36,0,0,1,.36-.35H458v-3.75h-3.73a.26.26,0,0,1-.26-.26h0v-3.39a.33.33,0,0,1,.28-.33,13,13,0,0,0,10.52-15,13.21,13.21,0,0,0-2-5,.4.4,0,0,1,.05-.51l3.25-3.31a.4.4,0,0,1,.56,0,.43.43,0,0,1,.11.28v2.76h3.75V153.93Zm-5.67,27.46a9.57,9.57,0,0,1-11.76-11.77,10.36,10.36,0,0,1,6.63-6.63,9.57,9.57,0,0,1,11.77,11.76,10.37,10.37,0,0,1-6.64,6.64Z"/></g><g id="Group_11" data-name="Group 11"><path id="Path_1-9" data-name="Path 1-9" class="cls-2" d="M493,231h10.62a1.29,1.29,0,0,0,1.29-1.29v-2.13H494.53a1.52,1.52,0,0,0-1.53,1.52h0Z"/><path id="Path_2-9" data-name="Path 2-9" class="cls-2" d="M493,236.12h10.62a1.29,1.29,0,0,0,1.29-1.29h0V232.7H494.53a1.52,1.52,0,0,0-1.53,1.52h0Z"/><path id="Path_3-9" data-name="Path 3-9" class="cls-2" d="M507.19,213.6v3.75h3.22a.32.32,0,0,1,.32.33.31.31,0,0,1-.09.22l-3.44,3.51a.43.43,0,0,1-.55,0,13,13,0,0,0-10.44-2.26,12.82,12.82,0,0,0-10,10.26,13,13,0,0,0,10.37,15.15l.27,0a.38.38,0,0,1,.31.37v3.3a.29.29,0,0,1-.29.29h-3.54v3.75h3.52a.31.31,0,0,1,.31.31v3.77h3.75v-3.72a.36.36,0,0,1,.35-.36h3.63V248.6h-3.72a.25.25,0,0,1-.26-.26h0V245a.34.34,0,0,1,.28-.33,12.94,12.94,0,0,0,8.51-20,.41.41,0,0,1,.05-.52l3.26-3.31a.39.39,0,0,1,.55,0,.4.4,0,0,1,.12.28v2.75h3.74V213.6Zm-5.67,27.46a9.58,9.58,0,0,1-11.77-6.69,9.69,9.69,0,0,1,0-5.07,10.37,10.37,0,0,1,6.64-6.64,9.57,9.57,0,0,1,11.76,11.77,10.34,10.34,0,0,1-6.63,6.63Z"/></g><g id="Group_18" data-name="Group 18"><path id="Path_1-10" data-name="Path 1-10" class="cls-2" d="M493,111.68h10.62a1.29,1.29,0,0,0,1.29-1.29v-2.13H494.53a1.52,1.52,0,0,0-1.53,1.53h0Z"/><path id="Path_2-10" data-name="Path 2-10" class="cls-2" d="M493,116.77h10.62a1.29,1.29,0,0,0,1.29-1.29h0v-2.13H494.53a1.52,1.52,0,0,0-1.53,1.53h0Z"/><path id="Path_3-10" data-name="Path 3-10" class="cls-2" d="M507.19,94.26V98h3.22a.32.32,0,0,1,.32.33.31.31,0,0,1-.09.22l-3.44,3.51a.41.41,0,0,1-.55,0,13,13,0,0,0-10.44-2.26,12.82,12.82,0,0,0-10,10.26,13,13,0,0,0,10.37,15.15l.27,0a.37.37,0,0,1,.31.37V129a.29.29,0,0,1-.29.29h-3.54V133h3.52a.31.31,0,0,1,.31.32v3.76h3.75v-3.72a.36.36,0,0,1,.35-.36h3.63v-3.74h-3.72a.26.26,0,0,1-.26-.26h0v-3.39a.34.34,0,0,1,.28-.34,12.94,12.94,0,0,0,8.51-20,.39.39,0,0,1,.05-.51l3.26-3.32a.39.39,0,0,1,.55,0,.4.4,0,0,1,.12.28v2.75h3.74V94.26Zm-5.67,27.45A9.58,9.58,0,0,1,489.75,115a9.73,9.73,0,0,1,0-5.08,10.37,10.37,0,0,1,6.64-6.64,9.57,9.57,0,0,1,11.76,11.77,10.34,10.34,0,0,1-6.63,6.63Z"/></g><g id="Group_12" data-name="Group 12"><path id="Path_1-11" data-name="Path 1-11" class="cls-2" d="M493,290.7h10.62a1.29,1.29,0,0,0,1.29-1.29v-2.13H494.53a1.52,1.52,0,0,0-1.53,1.53h0Z"/><path id="Path_2-11" data-name="Path 2-11" class="cls-2" d="M493,295.79h10.62a1.29,1.29,0,0,0,1.29-1.29h0v-2.13H494.53A1.52,1.52,0,0,0,493,293.9h0Z"/><path id="Path_3-11" data-name="Path 3-11" class="cls-2" d="M507.19,273.28V277h3.22a.32.32,0,0,1,.32.32.33.33,0,0,1-.09.23l-3.44,3.5a.41.41,0,0,1-.55,0,13,13,0,0,0-10.44-2.26,12.82,12.82,0,0,0-10,10.27,13,13,0,0,0,10.37,15.14l.27.05a.37.37,0,0,1,.31.37V308a.29.29,0,0,1-.29.29h-3.54V312h3.52a.31.31,0,0,1,.31.32v3.76h3.75v-3.72a.35.35,0,0,1,.35-.35h3.63v-3.75h-3.72a.26.26,0,0,1-.26-.26h0v-3.39a.34.34,0,0,1,.28-.34,12.94,12.94,0,0,0,8.51-20,.4.4,0,0,1,.05-.51l3.26-3.31a.38.38,0,0,1,.55,0,.44.44,0,0,1,.12.28v2.75h3.74V273.28Zm-5.67,27.45a9.57,9.57,0,0,1-11.77-6.68,9.73,9.73,0,0,1,0-5.08,10.35,10.35,0,0,1,6.64-6.63,9.56,9.56,0,0,1,11.76,11.76,10.34,10.34,0,0,1-6.63,6.63Z"/></g><g id="Group_15" data-name="Group 15"><path id="Path_1-12" data-name="Path 1-12" class="cls-2" d="M493,171.35h10.62a1.29,1.29,0,0,0,1.29-1.29v-2.13H494.53a1.53,1.53,0,0,0-1.53,1.53h0Z"/><path id="Path_2-12" data-name="Path 2-12" class="cls-2" d="M493,176.44h10.62a1.29,1.29,0,0,0,1.29-1.29h0V173H494.53a1.53,1.53,0,0,0-1.53,1.53h0Z"/><path id="Path_3-12" data-name="Path 3-12" class="cls-2" d="M507.19,153.93v3.75h3.22a.33.33,0,0,1,.23.55l-3.44,3.51a.44.44,0,0,1-.55,0,12.93,12.93,0,0,0-10.44-2.26,12.8,12.8,0,0,0-10,10.26,13,13,0,0,0,10.37,15.14l.27.05a.38.38,0,0,1,.31.37v3.3a.29.29,0,0,1-.29.29h-3.54v3.75h3.52a.31.31,0,0,1,.31.31v3.76h3.75V193a.35.35,0,0,1,.35-.35h3.63v-3.75h-3.72a.26.26,0,0,1-.26-.26h0v-3.39a.33.33,0,0,1,.28-.33,13,13,0,0,0,8.51-20,.4.4,0,0,1,.05-.51l3.26-3.31a.38.38,0,0,1,.55,0,.44.44,0,0,1,.12.28v2.76h3.74V153.93Zm-5.67,27.46a9.58,9.58,0,0,1-11.77-6.69,9.73,9.73,0,0,1,0-5.08,10.35,10.35,0,0,1,6.64-6.63,9.56,9.56,0,0,1,11.76,11.76,10.35,10.35,0,0,1-6.63,6.64Z"/></g></g></g></g></svg>